<svg version="1.1" xmlns="http://www.w3.org/2000/svg" xmlns:xlink="http://www.w3.org/1999/xlink" x="0px" y="0px"
	 viewBox="0 0 144 144" enable-background="new 0 0 144 144" xml:space="preserve">
<g>
	<path class="icon" d="M-51.086-867.178c0.325-1.924,0.52-3.903,0.52-5.928c0-18.009-13.482-32.611-30.112-32.611
		c-16.633,0-30.118,14.602-30.118,32.611c0,2.026,0.195,4.004,0.523,5.928c-10.466,8.048-17.153,20.268-17.153,33.956
		c0,24.229,20.934,43.872,46.748,43.872c25.813,0,46.736-19.643,46.736-43.872C-33.941-846.911-40.62-859.131-51.086-867.178z"/>
	<path class="icon" d="M-80.678-900.033c-3.595-3.473-5.891-6.128-7.864-8.551c-1.92-2.407-3.385-4.435-4.59-6.346
		c-1.207-1.926-2.093-3.792-3.32-6.244c-1.21-2.495-2.891-5.362-5.411-9.764c4.116-2.911,8.915-3.265,13.345-1.907
		c4.423,1.385,8.319,4.597,10.653,8.497c2.407,3.887,3.382,8.339,3.012,12.564C-75.295-907.569-76.833-903.372-80.678-900.033z"/>
	<path class="icon" d="M-75.796-908.085c0.186-3.209,1.528-5.417,3.068-7.236c1.594-1.764,3.556-3.019,5.706-3.731
		c2.145-0.723,4.485-0.915,6.838-0.43c2.338,0.505,4.705,1.586,6.77,3.993c-1.911,2.611-3.53,3.986-5.097,5.268
		c-1.579,1.151-3.1,1.99-4.736,2.518c-1.63,0.528-3.359,0.796-5.342,0.793C-70.621-906.968-72.755-907.203-75.796-908.085z"/>
</g>
<g>
	<g>
		<g>
			<path class="icon" d="M526.653-894.029c-0.437-0.603-10.863-15.069-14.466-38l6.948-1.107
				c3.372,21.266,13.118,34.812,13.223,34.945L526.653-894.029z"/>
		</g>
		<g>
			<path class="icon" d="M529.515-902.198c2.241-5.938,5.397-9.98,8.825-13.447c3.479-3.387,7.284-6.03,11.425-8.024
				c4.141-2.004,8.59-3.343,13.398-3.934c4.854-0.513,9.98-0.446,16.021,1.537c-2.218,5.963-5.374,10.01-8.806,13.472
				c-3.474,3.388-7.298,6.027-11.443,8.003c-4.155,1.976-8.604,3.315-13.412,3.909C540.668-900.174,535.551-900.236,529.515-902.198
				z"/>
		</g>
	</g>
	<g>
		<path class="icon" d="M529.515-898.342c-29.175-7.061-64.797,3.527-62.616,37.719c0,29.014,19.219,68.222,52.282,70.682
			c1.077,0.081,14.774-2.084,17.388,0.12c34.577,0,55.549-40.835,55.549-70.802C594.307-894.816,558.667-905.403,529.515-898.342z"
			/>
	</g>
</g>
<g>
	<path class="icon" d="M131.939-878.757c0-6.471-5.249-11.716-11.723-11.716c-0.599,0-1.188,0.09-1.774,0.18
		c1.07-1.771,1.721-3.822,1.721-6.04c0-6.471-5.242-11.718-11.716-11.718c-6.347,0-11.479,5.052-11.673,11.352
		c-0.205-6.301-5.342-11.352-11.688-11.352c-6.474,0-11.716,5.247-11.716,11.718c0-6.471-5.245-11.718-11.716-11.718
		c-6.469,0-11.718,5.247-11.718,11.718c0-6.471-5.249-11.718-11.72-11.718c-6.467,0-11.715,5.247-11.715,11.718
		c0,2.211,0.649,4.256,1.711,6.018c-0.534-0.069-1.061-0.159-1.617-0.159c-6.474,0-11.718,5.245-11.718,11.716
		c0,6.467,5.244,11.718,11.718,11.718c0.916,0,1.797-0.13,2.642-0.331c-1.637,2.021-2.662,4.556-2.662,7.362
		c0,6.469,5.249,11.715,11.72,11.715c1.187,0,2.31-0.232,3.395-0.561c-2.065,2.115-3.343,4.995-3.343,8.18
		c0,6.467,5.246,11.714,11.718,11.714c1.552,0,3.024-0.315,4.379-0.863c-2.654,2.15-4.379,5.391-4.379,9.064
		c0,6.474,5.249,11.72,11.72,11.72c1.158,0,2.26-0.224,3.324-0.538c-2.053,2.11-3.324,4.975-3.324,8.155
		c0,6.469,5.244,11.716,11.713,11.716c6.474,0,11.721-5.247,11.721-11.716c0-3.18-1.278-6.045-3.323-8.155
		c1.06,0.314,2.158,0.538,3.323,0.538c6.472,0,11.718-5.246,11.718-11.72c0-3.673-1.731-6.915-4.381-9.064
		c1.352,0.548,2.827,0.863,4.381,0.863c6.472,0,11.716-5.247,11.716-11.714c0-3.153-1.26-5.995-3.281-8.101
		c1.011,0.282,2.049,0.482,3.149,0.482c6.474,0,11.716-5.246,11.716-11.715c0-2.806-1.025-5.341-2.661-7.362
		c0.845,0.2,1.727,0.331,2.64,0.331C126.69-867.039,131.939-872.289,131.939-878.757z M101.375-894.195
		c0.03,0.035,2.74,2.836,6.327,2.804c2.103-0.055,4.404-0.579,6.258-3.149l1.143,0.608c-2.31,3.204-4.181,5.621-7.061,5.688
		c-0.064,0-0.127,0.002-0.177,0.002c-4.711,0-7.357-5.135-7.5-5.319L101.375-894.195z M97.909-875.855
		c0.028,0.034,2.737,2.834,6.325,2.804c2.108-0.052,4.411-0.577,6.257-3.149l1.143,0.606c-2.303,3.21-4.179,5.623-7.065,5.689
		c-0.057,0-0.117,0.003-0.177,0.003c-4.707,0-7.347-5.135-7.494-5.319L97.909-875.855z M78.48-892.83
		c0.028,0.038,2.735,2.837,6.322,2.806c2.108-0.055,4.409-0.577,6.26-3.148l1.14,0.607c-2.303,3.201-4.178,5.621-7.061,5.69
		c-0.065,0-0.12,0-0.179,0c-4.706,0-7.347-5.135-7.495-5.319L78.48-892.83z M78.48-875.855c0.028,0.034,2.735,2.834,6.322,2.804
		c2.108-0.052,4.409-0.577,6.26-3.149l1.14,0.606c-2.303,3.21-4.178,5.623-7.061,5.689c-0.065,0-0.12,0.003-0.179,0.003
		c-4.706,0-7.347-5.135-7.495-5.319L78.48-875.855z M75.057-858.083c0.032,0.035,2.737,2.837,6.324,2.804
		c2.113-0.049,4.409-0.576,6.265-3.149l1.14,0.611c-2.308,3.204-4.184,5.623-7.063,5.688c-0.062,0-0.12,0-0.177,0
		c-4.708,0-7.354-5.135-7.495-5.319L75.057-858.083z M74.014-837.118c2.108-0.05,4.408-0.581,6.264-3.148l1.138,0.611
		c-2.307,3.204-4.181,5.62-7.063,5.685c-0.057,0.003-0.115,0.003-0.178,0.003c-4.708,0-7.347-5.139-7.494-5.321l1.01-0.634
		C67.719-839.885,70.426-837.086,74.014-837.118z M54.078-893.562l1.011-0.633c0.033,0.035,2.744,2.836,6.33,2.804
		c2.1-0.055,4.401-0.579,6.259-3.149l1.14,0.608c-2.307,3.204-4.182,5.621-7.061,5.688c-0.065,0-0.117,0.002-0.179,0.002
		C56.872-888.243,54.223-893.379,54.078-893.562z M70.698-875.594c-2.307,3.21-4.184,5.623-7.06,5.689
		c-0.06,0-0.122,0.003-0.18,0.003c-4.703,0-7.352-5.135-7.497-5.319l1.01-0.634c0.032,0.034,2.74,2.834,6.325,2.804
		c2.108-0.052,4.406-0.577,6.26-3.149L70.698-875.594z M54.05-858.083c0.028,0.035,2.742,2.837,6.329,2.804
		c2.103-0.049,4.405-0.576,6.255-3.149l1.145,0.611c-2.312,3.204-4.179,5.623-7.058,5.688c-0.067,0-0.122,0-0.18,0
		c-4.71,0-7.354-5.135-7.502-5.319L54.05-858.083z M49.907-876.2l1.143,0.606c-2.308,3.21-4.181,5.623-7.066,5.689
		c-0.062,0-0.12,0.003-0.175,0.003c-4.71,0-7.347-5.135-7.497-5.319l1.005-0.634c0.033,0.034,2.744,2.834,6.33,2.804
		C45.75-873.102,48.053-873.628,49.907-876.2z M31.333-894.195c0.028,0.035,2.739,2.836,6.324,2.804
		c2.106-0.055,4.405-0.579,6.26-3.149l1.137,0.608c-2.303,3.204-4.174,5.621-7.061,5.688c-0.052,0-0.115,0.002-0.174,0.002
		c-4.708,0-7.35-5.135-7.493-5.319L31.333-894.195z M25.983-871.11c-0.055,0.005-0.117,0.005-0.172,0.005
		c-4.708,0-7.357-5.136-7.499-5.323l1.01-0.634c0.032,0.04,2.739,2.837,6.324,2.807c2.106-0.053,4.408-0.582,6.255-3.153
		l1.147,0.612C30.741-873.588,28.863-871.171,25.983-871.11z M39.291-852.988c-0.06,0-0.117,0.006-0.172,0.006
		c-4.713,0-7.353-5.14-7.504-5.327l1.017-0.629c0.025,0.037,2.737,2.837,6.32,2.802c2.11-0.05,4.406-0.576,6.262-3.146l1.145,0.607
		C44.051-855.468,42.176-853.046,39.291-852.988z M52.738-833.97c-0.064,0.003-0.12,0.003-0.179,0.003
		c-4.708,0-7.355-5.139-7.505-5.321l1.017-0.634c0.032,0.037,2.739,2.836,6.324,2.804c2.108-0.05,4.411-0.581,6.265-3.148
		l1.138,0.611C57.491-836.45,55.614-834.035,52.738-833.97z M65.149-814.341c-4.705,0-7.347-5.134-7.494-5.319l1.013-0.632
		c0.031,0.034,2.737,2.837,6.324,2.802c2.109-0.052,4.408-0.579,6.262-3.149l1.14,0.609c-2.305,3.204-4.181,5.621-7.067,5.689
		C65.272-814.341,65.212-814.341,65.149-814.341z M74.353-794.422c-0.057,0.002-0.115,0.002-0.178,0.002
		c-4.708,0-7.347-5.135-7.494-5.321l1.01-0.634c0.028,0.039,2.735,2.836,6.324,2.804c2.108-0.05,4.408-0.576,6.264-3.146
		l1.138,0.611C79.109-796.903,77.235-794.485,74.353-794.422z M82.955-814.341c-0.058,0-0.12,0-0.177,0
		c-4.71,0-7.352-5.134-7.505-5.319l1.018-0.632c0.034,0.034,2.735,2.837,6.32,2.802c2.11-0.052,4.411-0.579,6.265-3.149l1.139,0.609
		C87.709-816.826,85.835-814.409,82.955-814.341z M97.201-833.97c-0.057,0.003-0.117,0.003-0.177,0.003
		c-4.708,0-7.347-5.139-7.497-5.321l1.015-0.634c0.023,0.037,2.739,2.836,6.322,2.804c2.103-0.05,4.399-0.581,6.258-3.148
		l1.138,0.611C101.953-836.45,100.085-834.035,97.201-833.97z M108.043-852.13c-0.064,0-0.127,0-0.177,0
		c-4.711,0-7.357-5.135-7.5-5.319l1.01-0.634c0.03,0.035,2.74,2.837,6.327,2.804c2.103-0.049,4.404-0.576,6.258-3.149l1.143,0.611
		C112.794-854.613,110.923-852.195,108.043-852.13z M114.033-876.427l1.017-0.634c0.023,0.04,2.732,2.837,6.32,2.807
		c2.11-0.053,4.408-0.582,6.26-3.153l1.143,0.612c-2.307,3.206-4.181,5.623-7.061,5.685c-0.064,0.005-0.123,0.005-0.18,0.005
		C116.821-871.104,114.181-876.24,114.033-876.427z"/>
	<path class="icon" d="M71.39-892.422c0,0,7.606-27.173-6.719-35.571"/>
	<path class="icon" d="M73.405-914.888c-0.16-4.446,1.27-7.757,3.168-10.541c1.941-2.769,4.583-4.865,7.684-6.239
		c3.096-1.358,6.734-1.996,10.444-1.297c3.644,0.689,7.482,2.672,9.375,6.751c-3.585,2.604-5.519,4.465-7.468,6.003
		c-1.893,1.542-3.687,2.657-5.771,3.565c-2.085,0.891-4.386,1.589-7.172,1.935C80.85-914.363,77.746-914.251,73.405-914.888z"/>
	<path class="icon" d="M72.609-911.991c-3.926,0.921-6.92,1.068-9.717,0.998c-2.752-0.1-5.204-0.466-7.474-1.046
		c-2.285-0.559-4.363-1.36-6.577-2.367c-2.263-1.021-4.567-2.252-8.328-3.789c1.394-3.879,4.773-6.165,8.166-7.265
		c3.44-1.085,7.016-1.035,10.212-0.203c3.216,0.819,6.1,2.408,8.507,4.616C69.763-918.792,71.789-915.995,72.609-911.991z"/>
</g>
<g>
	<path class="icon" d="M425.047-932.794l-5.211,5.215c29.706,29.711,29.72,78.051,0,107.762
		c-29.709,29.707-78.046,29.707-107.762,0l-5.218,5.22c16.3,16.286,37.705,24.434,59.096,24.434c21.405,0,42.81-8.148,59.096-24.434
		C457.644-847.192,457.644-900.205,425.047-932.794z"/>
	<path class="icon" d="M415.645-823.968c27.166-27.16,27.166-71.21,0-98.377l-98.377,98.377
		C344.429-796.797,388.476-796.797,415.645-823.968z M416.545-900.796c2.756,0,4.995,2.209,4.995,2.209s-2.239,2.211-4.995,2.211
		c-2.76,0-4.999-2.211-4.999-2.211S413.785-900.796,416.545-900.796z M400.716-856.04c0,0,2.267,2.182,2.342,4.937
		c0.074,2.758-2.079,5.052-2.079,5.052s-2.26-2.177-2.345-4.938C398.565-853.737,400.716-856.04,400.716-856.04z M409.349-871.557
		c0,0-2.512,1.881-5.25,1.497c-2.731-0.383-4.641-2.88-4.641-2.88s2.533-1.874,5.254-1.493S409.349-871.557,409.349-871.557z
		 M392.149-843.867c0,0-1.134,2.921-3.642,4.067c-2.519,1.132-5.467,0.048-5.467,0.048s1.134-2.937,3.642-4.071
		C389.195-844.963,392.149-843.867,392.149-843.867z M383.176-863.323c0,0,2.207,2.235,2.207,4.994c0,2.753-2.207,4.993-2.207,4.993
		s-2.207-2.24-2.207-4.993C380.968-861.088,383.176-863.323,383.176-863.323z M385.833-879.792c0,0,3.139-0.239,5.24,1.538
		c2.101,1.78,2.395,4.919,2.395,4.919s-3.139,0.239-5.25-1.543C386.123-876.66,385.833-879.792,385.833-879.792z M365.487-861.036
		c0,0,2.21,2.239,2.21,4.997c0,2.758-2.21,5-2.21,5s-2.2-2.242-2.2-5C363.287-858.797,365.487-861.036,365.487-861.036z
		 M366.762-838.636c2.253,1.594,2.82,4.682,2.82,4.682s-3.104,0.521-5.367-1.057c-2.264-1.596-2.806-4.691-2.806-4.691
		S364.509-840.216,366.762-838.636z M345.474-825.128c-2.147-1.725-2.494-4.85-2.494-4.85s3.128-0.313,5.275,1.424
		c2.133,1.74,2.487,4.857,2.487,4.857S347.603-823.383,345.474-825.128z"/>
</g>
<path class="icon" d="M-26.605-692.324c0-23.051-14.442-42.68-34.762-50.462c0,0-4.908-2.976-2.333-12.63
	c0.117-0.391,0.189-0.804,0.377-1.154c0.644-1.295,1.715-2.423,3.062-3.285c2.724-1.711,6.235-2.359,9.675-2.551
	c-3.423-0.449-7.039-0.571-10.57,0.774c-1.741,0.68-3.433,1.817-4.67,3.425c-0.466,0.607-0.784,1.282-1.113,1.951
	c-0.485-2.691-0.179-5.62,0.866-8.456c2.183-5.83,6.84-10.941,11.897-15.264c-5.789,3.313-11.501,7.363-15.37,13.574
	c-1.878,3.087-3.134,6.821-3.163,10.758c0,0.08,0.013,0.153,0.013,0.228c-0.032,0-0.078,0-0.107,0
	c-0.813-0.779-1.578-2.192-1.809-3.538c-0.27-1.419-0.104-2.968,0.446-4.471c1.126-3.013,3.528-5.652,6.15-7.89
	c-2.997,1.718-5.942,3.81-7.94,7.014c-0.97,1.598-1.624,3.529-1.643,5.558c0.01,1.142-3.222,5.669-2.873,6.753
	c-0.901,0,1.617-3.427,0.69-3.427c-0.472-2.773-1.497-5.378-2.873-7.631c-3.863-6.215-9.58-10.265-15.376-13.575
	c5.077,4.323,9.724,9.427,11.904,15.27c0.729,1.98,0.97,3.974,0.97,5.936c-0.345-2.56-5.008-4.916-6.339-7.011
	c-1.783-2.757-4.341-4.813-7.049-6.149c-5.493-2.636-11.321-2.924-16.88-2.664c5.503,0.773,11.055,2.28,15.204,5.405
	c2.044,1.562,3.619,3.534,4.471,5.7c0.133,0.306,0.14,0.67,0.241,0.999c-0.892-0.866-1.858-1.484-2.841-2.106
	c-2.053-1.123-4.139-1.702-6.163-2c-4.058-0.597-7.924-0.226-11.663,0.386c3.717,0.664,7.403,1.634,10.489,3.292
	c1.536,0.815,2.893,1.827,3.843,2.94c0.322,0.34,4.263,4.751,4.185,4.751c4.351,6.564-2.337,9.086-2.337,9.086
	c-20.313,7.782-34.765,27.41-34.765,50.462c0,27.169,20.052,49.591,46.148,53.438c1.201,1.409,3.7,2.397,6.645,2.397
	c2.639,0,4.852-0.826,6.16-1.993C-48.219-640.955-26.605-664.1-26.605-692.324z"/>
<g>
	<g>
		<g>
			<g>
				<g>
					<path class="icon" d="M210.352-831.794l-6.885-0.029c0-0.717-0.483-72.681-48.353-94.452l2.849-6.271
						C209.927-908.935,210.36-834.939,210.352-831.794z"/>
				</g>
			</g>
		</g>
	</g>
	<g>
		<g>
			<g>
				<g>
					<path class="icon" d="M234.266-833.492c-5.116-7.957-15.381-11.477-27.362-11.477c-17.026,0-30.833,6.917-30.833,23.948
						c0,17.043,13.806,30.849,30.833,30.849c11.98,0,22.246-6.893,27.362-16.873c-2.173-4.213-3.492-8.909-3.492-13.976
						C230.774-826.072,232.094-830.145,234.266-833.492z"/>
				</g>
			</g>
		</g>
	</g>
	<g>
		<g>
			<g>
				<path class="icon" d="M295.903-821.022c0,17.043-13.819,30.849-30.849,30.849c-17.026,0-30.837-13.806-30.837-30.849
					c0-17.03,13.811-23.948,30.837-23.948C282.084-844.969,295.903-838.052,295.903-821.022z"/>
			</g>
		</g>
	</g>
	<g>
		<g>
			<g>
				<path class="icon" d="M268.224-831.794l-6.324-0.029c0-1.938-0.536-47.644-48.518-69.444l2.626-5.763
					C267.787-883.495,268.224-832.309,268.224-831.794z"/>
			</g>
		</g>
	</g>
</g>
<g>
	<path class="icon" d="M295.201-653.832c0,0-11.423-5.43-24.357-9.964c10.163-15.101,19.159-40.38,19.159-40.38
		s-20.477,7.278-35.585,16.143c0-0.145,0.018-0.293,0.018-0.44c0-0.887-0.018-1.8-0.033-2.736h-6.082
		c0.061,2.41,0.093,4.736,0.105,7.007c-1.058,0.741-2.05,1.495-2.975,2.24c0-2.953-0.028-6.028-0.117-9.248h-18.577v10.463h17.259
		c-0.457,0.412-0.896,0.819-1.31,1.233c-0.595,0.592-1.138,1.182-1.673,1.767h-14.276v9.971h4.302
		c-1.675,0.657-3.098,1.442-4.302,2.356v-2.356h-2.984v2.995h2.204c-0.381,0.33-0.739,0.676-1.065,1.025
		c-0.358-0.29-0.737-0.576-1.138-0.854v-0.171h-0.236c-1.926-1.278-4.367-2.291-7.388-2.96c-0.009-0.016-0.009-0.023-0.014-0.035
		h7.638v-9.971h-14.883c-0.196-0.204-0.369-0.407-0.573-0.609c-0.732-0.732-1.554-1.46-2.438-2.193c0-0.063-0.002-0.126-0.002-0.197
		h-0.229c-0.856-0.69-1.776-1.386-2.747-2.078c0.007-2.691,0.035-5.479,0.112-8.385h-6.882c-0.025,0.936-0.039,1.849-0.039,2.736
		c0,0.454,0.023,0.873,0.03,1.329c-15.055-8.733-35.098-15.866-35.098-15.866s8.994,25.274,19.161,40.375
		c-12.944,4.54-24.368,9.971-24.368,9.971s33.656,15.997,50.88,15.997c9.918-0.007,16.021-2.387,19.421-6.091
		c3.573,3.033,9.373,4.917,18.209,4.917C261.548-637.84,295.201-653.832,295.201-653.832z"/>
	<path class="icon" d="M226.754-707.167h17.781c-0.199-2.764-0.437-5.586-0.721-8.485h-17.06V-707.167z"/>
	<path class="icon" d="M249.452-731.604c-0.798-3.882-1.674-7.736-2.623-11.466h-3.7c0.677,3.908,1.267,7.72,1.793,11.466H249.452
		z"/>
	<path class="icon" d="M226.754-718.634h16.763c-0.349-3.255-0.732-6.578-1.191-9.977h-15.572V-718.634z"/>
	<path class="icon" d="M251.772-718.634c-0.512-3.313-1.088-6.649-1.731-9.977h-4.695c0.449,3.4,0.833,6.723,1.175,9.977H251.772z
		"/>
	<path class="icon" d="M242.335-758.033c-1.222-3.443-2.518-6.627-3.861-9.468h-0.44c0.784,3.192,1.504,6.351,2.171,9.468H242.335
		z"/>
	<path class="icon" d="M246.039-746.061c-0.847-3.11-1.748-6.115-2.687-8.975h-2.495c0.632,3.033,1.2,6.023,1.732,8.975H246.039z"
		/>
	<path class="icon" d="M198.309-715.651c-0.41,2.885-0.768,5.714-1.069,8.485h6.56c0.199-2.764,0.438-5.586,0.714-8.485H198.309z"
		/>
	<path class="icon" d="M207.171-755.036c-0.941,2.86-1.839,5.866-2.68,8.975h4.248c0.536-2.953,1.105-5.942,1.737-8.975H207.171z"
		/>
	<path class="icon" d="M200.481-728.611c-0.638,3.328-1.214,6.665-1.725,9.977h6.059c0.333-3.255,0.723-6.578,1.177-9.977H200.481
		z"/>
	<path class="icon" d="M223.77-781.037c-2.357,0.554-4.64,2.408-6.814,5.224l1.444,0.395c-0.451,1.65-0.857,3.288-1.271,4.917
		h6.641V-781.037z"/>
	<path class="icon" d="M232.932-775.418l0.779-0.211c-2.223-2.928-4.544-4.846-6.957-5.408v10.536h7.456
		C233.786-772.13,233.377-773.768,232.932-775.418z"/>
	<path class="icon" d="M213.569-770.5h0.472c0.127-0.505,0.262-1.013,0.388-1.516C214.14-771.52,213.853-771.023,213.569-770.5z"
		/>
	<path class="icon" d="M212.053-767.5c-1.348,2.841-2.642,6.024-3.864,9.468h2.934c0.674-3.117,1.397-6.276,2.172-9.468H212.053z"
		/>
	<path class="icon" d="M203.699-743.07c-0.95,3.73-1.83,7.584-2.633,11.466h5.345c0.527-3.746,1.123-7.557,1.798-11.466H203.699z"
		/>
	<path class="icon" d="M226.754-694.2h18.49c-0.119-3.206-0.285-6.536-0.501-9.976h-17.989V-694.2z"/>
	<path class="icon" d="M223.77-743.07h-12.531c-0.683,3.908-1.28,7.725-1.815,11.466h14.345V-743.07z"/>
	<path class="icon" d="M223.77-767.5h-7.397c-0.784,3.197-1.509,6.351-2.191,9.468h9.588V-767.5z"/>
	<path class="icon" d="M223.77-728.611h-14.762c-0.457,3.4-0.847,6.723-1.186,9.977h15.948V-728.611z"/>
	<path class="icon" d="M226.754-731.604h15.152c-0.533-3.746-1.132-7.557-1.815-11.466h-13.337V-731.604z"/>
	<path class="icon" d="M237.144-758.033c-0.677-3.117-1.393-6.27-2.181-9.468h-8.209v9.468H237.144z"/>
	<path class="icon" d="M226.754-746.061h12.801c-0.539-2.953-1.121-5.942-1.751-8.975h-11.05V-746.061z"/>
	<path class="icon" d="M223.77-755.036h-10.238c-0.635,3.033-1.212,6.023-1.753,8.975h11.991V-755.036z"/>
	<path class="icon" d="M223.77-691.208h-17.776c-0.096,3.66-0.131,7.161-0.119,10.463h17.895V-691.208z"/>
	<path class="icon" d="M223.77-715.651h-16.257c-0.281,2.898-0.519,5.72-0.718,8.485h16.975V-715.651z"/>
	<path class="icon" d="M223.77-704.176h-17.182c-0.224,3.44-0.386,6.77-0.498,9.976h17.68V-704.176z"/>
	<path class="icon" d="M196.933-704.176c-0.337,3.48-0.575,6.826-0.709,9.976h6.88c0.115-3.206,0.278-6.536,0.497-9.976H196.933z"
		/>
	<path class="icon" d="M254.302-694.2c-0.133-3.15-0.374-6.496-0.712-9.976h-5.85c0.219,3.44,0.381,6.77,0.496,9.976H254.302z"/>
	<path class="icon" d="M253.289-707.167c-0.304-2.771-0.664-5.6-1.078-8.485h-5.394c0.276,2.898,0.514,5.72,0.711,8.485H253.289z"
		/>
	<path class="icon" d="M217.129-770.5h-3.089c-0.262,1.001-0.503,2.004-0.746,3h3.078
		C216.614-768.496,216.871-769.5,217.129-770.5z"/>
	<path class="icon" d="M238.034-767.5c-0.138-0.585-0.269-1.153-0.414-1.731c-0.215-0.437-0.438-0.852-0.665-1.27h-2.745
		c0.246,1.001,0.508,2.004,0.753,3H238.034z"/>
	<rect x="223.77" y="-770.5" class="icon" width="2.984" height="3"/>
	<path class="icon" d="M214.182-758.033h-3.059c-0.217,1.002-0.442,2.005-0.646,2.996h3.056
		C213.74-756.028,213.965-757.031,214.182-758.033z"/>
	<path class="icon" d="M237.804-755.036h3.052c-0.206-0.992-0.431-1.994-0.651-2.996h-3.061
		C237.371-757.031,237.596-756.028,237.804-755.036z"/>
	<rect x="223.77" y="-758.033" class="icon" width="2.984" height="2.996"/>
	<path class="icon" d="M211.779-746.061h-3.04c-0.175,0.995-0.362,1.999-0.529,2.991h3.03
		C211.419-744.062,211.596-745.066,211.779-746.061z"/>
	<path class="icon" d="M240.091-743.07h3.039c-0.177-0.992-0.357-1.996-0.541-2.991h-3.033
		C239.732-745.066,239.918-744.062,240.091-743.07z"/>
	<rect x="223.77" y="-746.061" class="icon" width="2.984" height="2.991"/>
	<path class="icon" d="M209.425-731.604h-3.014c-0.143,1-0.283,2.006-0.419,2.993h3.015
		C209.141-729.598,209.282-730.604,209.425-731.604z"/>
	<path class="icon" d="M242.326-728.611h3.019c-0.133-0.987-0.281-1.993-0.423-2.993h-3.017
		C242.042-730.604,242.197-729.598,242.326-728.611z"/>
	<rect x="223.77" y="-731.604" class="icon" width="2.984" height="2.993"/>
	<path class="icon" d="M207.822-718.634h-3.007c-0.099,1.004-0.208,2.001-0.3,2.983h2.998
		C207.611-716.633,207.71-717.63,207.822-718.634z"/>
	<path class="icon" d="M243.814-715.651h3.003c-0.091-0.981-0.19-1.978-0.297-2.983h-3.003
		C243.619-717.63,243.722-716.633,243.814-715.651z"/>
	<rect x="223.77" y="-718.634" class="icon" width="2.984" height="2.983"/>
	<path class="icon" d="M206.795-707.167h-2.995c-0.077,1.006-0.142,2.004-0.199,2.991h2.986
		C206.652-705.162,206.72-706.161,206.795-707.167z"/>
	<path class="icon" d="M244.743-704.176h2.996c-0.065-0.987-0.139-1.985-0.211-2.991h-2.993
		C244.612-706.161,244.68-705.162,244.743-704.176z"/>
	<rect x="223.77" y="-707.167" class="icon" width="2.984" height="2.991"/>
	<path class="icon" d="M206.09-694.2h-2.986c-0.031,1.006-0.07,2.007-0.093,2.991h2.983
		C206.02-692.193,206.051-693.194,206.09-694.2z"/>
	<path class="icon" d="M245.332-691.208h2.988c-0.026-0.985-0.056-1.985-0.084-2.991h-2.991
		C245.276-693.194,245.306-692.193,245.332-691.208z"/>
	<rect x="223.77" y="-694.2" class="icon" width="2.984" height="2.991"/>
	<rect x="223.77" y="-680.746" class="icon" width="2.984" height="3"/>
</g>
<path class="icon" d="M111.016-380.279c-14.863,14.861-39.043,14.861-53.906,0c-14.861-14.859-14.861-39.037,0-53.896
	l-31.288-31.299c-32.173,32.171-32.173,84.323,0,116.488c32.163,32.173,84.318,32.173,116.485,0L111.016-380.279z"/>
<path class="icon" d="M-20.091-453.726c-5.538,0.586-11.625,4.404-17.092,8.975c-1.581-1.56-3.27-3.05-5.059-4.454
	c-27.72-21.687-69.106-15.095-92.43,14.725c-23.33,29.819-19.755,71.574,7.97,93.259c27.726,21.687,69.108,15.095,92.442-14.727
	c20.709-26.488,20.164-62.36,0.357-85.252c4.868-4.066,9.991-7.282,14.316-7.737c2.265-0.254,4.132,0.309,5.698,1.664l3.15-3.634
	C-13.337-453.153-16.481-454.094-20.091-453.726z"/>
<g>
	<g>
		<path class="icon" d="M-80.685-587.106c-48.715,0-49.542,22.18-49.542,49.542c0,27.361,36.332,56.15,49.542,56.15
			c13.212,0,49.545-28.789,49.545-56.15C-31.14-564.926-31.966-587.106-80.685-587.106z M-92.04-550.891
			c1.155,0,2.096,3.135,2.096,6.998c0,3.861-0.942,6.994-2.096,6.994c-1.166,0-2.101-3.133-2.101-6.994
			C-94.141-547.757-93.206-550.891-92.04-550.891z M-120.724-536.9c-1.155,0-2.095-3.133-2.095-6.994
			c0-3.863,0.94-6.998,2.095-6.998c1.162,0,2.101,3.135,2.101,6.998C-118.623-540.032-119.561-536.9-120.724-536.9z
			 M-115.049-518.323c-1.048,0-1.893-2.831-1.893-6.322c0-3.486,0.845-6.313,1.893-6.313c1.052,0,1.899,2.827,1.899,6.313
			C-113.15-521.154-113.997-518.323-115.049-518.323z M-112.063-554.351c-1.37,0-2.475-3.698-2.475-8.26
			c0-4.562,1.105-8.258,2.475-8.258c1.368,0,2.479,3.696,2.479,8.258C-109.583-558.049-110.694-554.351-112.063-554.351z
			 M-106.751-536.9c-1.158,0-2.101-3.133-2.101-6.994c0-3.863,0.943-6.998,2.101-6.998c1.158,0,2.096,3.135,2.096,6.998
			C-104.654-540.032-105.593-536.9-106.751-536.9z M-104.331-524.645c0-3.486,0.85-6.313,1.891-6.313
			c1.057,0,1.904,2.827,1.904,6.313c0,3.491-0.847,6.322-1.904,6.322C-103.481-518.323-104.331-521.154-104.331-524.645z
			 M-100.781-499.975c-0.842,0-1.524-2.274-1.524-5.082c0-2.805,0.682-5.083,1.524-5.083c0.844,0,1.527,2.278,1.527,5.083
			C-99.254-502.249-99.937-499.975-100.781-499.975z M-95.57-554.351c-1.366,0-2.479-3.698-2.479-8.26
			c0-4.562,1.113-8.258,2.479-8.258c1.366,0,2.473,3.696,2.473,8.258C-93.097-558.049-94.203-554.351-95.57-554.351z
			 M-92.451-518.323c-1.051,0-1.899-2.831-1.899-6.322c0-3.486,0.848-6.313,1.899-6.313c1.043,0,1.891,2.827,1.891,6.313
			C-90.56-521.154-91.408-518.323-92.451-518.323z M-90.095-499.975c-0.841,0-1.521-2.274-1.521-5.082
			c0-2.805,0.68-5.083,1.521-5.083c0.842,0,1.519,2.278,1.519,5.083C-88.576-502.249-89.253-499.975-90.095-499.975z
			 M-81.055-499.975c-0.839,0-1.521-2.274-1.521-5.082c0-2.805,0.682-5.083,1.521-5.083c0.847,0,1.525,2.278,1.525,5.083
			C-79.53-502.249-80.209-499.975-81.055-499.975z M-81.221-518.323c-1.041,0-1.892-2.831-1.892-6.322
			c0-3.486,0.851-6.313,1.892-6.313c1.049,0,1.9,2.827,1.9,6.313C-79.32-521.154-80.172-518.323-81.221-518.323z M-79.594-536.9
			c-1.158,0-2.098-3.133-2.098-6.994c0-3.863,0.94-6.998,2.098-6.998c1.16,0,2.098,3.135,2.098,6.998
			C-77.496-540.032-78.434-536.9-79.594-536.9z M-78.204-554.351c-1.37,0-2.481-3.698-2.481-8.26c0-4.562,1.111-8.258,2.481-8.258
			c1.366,0,2.478,3.696,2.478,8.258C-75.726-558.049-76.838-554.351-78.204-554.351z M-70.788-499.975
			c-0.839,0-1.525-2.274-1.525-5.082c0-2.805,0.686-5.083,1.525-5.083c0.841,0,1.525,2.278,1.525,5.083
			C-69.263-502.249-69.948-499.975-70.788-499.975z M-68.458-518.323c-1.043,0-1.896-2.831-1.896-6.322
			c0-3.486,0.853-6.313,1.896-6.313c1.048,0,1.899,2.827,1.899,6.313C-66.56-521.154-67.411-518.323-68.458-518.323z M-65.462-536.9
			c-1.155,0-2.098-3.133-2.098-6.994c0-3.863,0.943-6.998,2.098-6.998c1.153,0,2.103,3.135,2.103,6.998
			C-63.36-540.032-64.309-536.9-65.462-536.9z M-63.512-554.351c-1.368,0-2.476-3.698-2.476-8.26c0-4.562,1.108-8.258,2.476-8.258
			c1.366,0,2.479,3.696,2.479,8.258C-61.033-558.049-62.146-554.351-63.512-554.351z M-60.591-499.975
			c-0.841,0-1.519-2.274-1.519-5.082c0-2.805,0.679-5.083,1.519-5.083c0.842,0,1.528,2.278,1.528,5.083
			C-59.063-502.249-59.749-499.975-60.591-499.975z M-55.779-518.323c-1.045,0-1.896-2.831-1.896-6.322
			c0-3.486,0.851-6.313,1.896-6.313c1.047,0,1.899,2.827,1.899,6.313C-53.88-521.154-54.731-518.323-55.779-518.323z M-51.416-536.9
			c-1.162,0-2.104-3.133-2.104-6.994c0-3.863,0.942-6.998,2.104-6.998c1.158,0,2.095,3.135,2.095,6.998
			C-49.322-540.032-50.258-536.9-51.416-536.9z M-46.319-518.323c-1.047,0-1.897-2.831-1.897-6.322c0-3.486,0.85-6.313,1.897-6.313
			c1.044,0,1.894,2.827,1.894,6.313C-44.425-521.154-45.275-518.323-46.319-518.323z M-46.828-554.351
			c-1.37,0-2.478-3.698-2.478-8.26c0-4.562,1.108-8.258,2.478-8.258c1.366,0,2.478,3.696,2.478,8.258
			C-44.35-558.049-45.462-554.351-46.828-554.351z M-37.288-536.9c-1.152,0-2.093-3.133-2.093-6.994
			c0-3.863,0.942-6.998,2.093-6.998c1.16,0,2.098,3.135,2.098,6.998C-35.19-540.032-36.128-536.9-37.288-536.9z"/>
	</g>
	<g>
		<path class="icon" d="M-96.793-588.757h41.427l-7.285-7.285l7.285-14.199c0,0-9.206,0-13.81,10.741l0.766-10.741l-7.668,10.741
			l-12.278-10.741l1.539,10.741l-15.349-10.741l6.14,14.579l-9.975,6.906H-96.793z"/>
	</g>
	<g>
		<path class="icon" d="M-77.824-598.948l-3.119-1.102c0.062-0.16,5.561-16.158-3.908-21.982l1.734-2.817
			C-71.384-617.626-77.558-599.706-77.824-598.948z"/>
	</g>
</g>
<g>
	<g>
		<path class="icon" d="M72.776-594.994c8.821,1.495,25.067,0,25.067,0l-6.998-7.192l6.998-14.02c0,0-8.843,0-13.261,10.606
			l0.734-10.606l-7.368,10.606l-11.791-10.606l1.469,10.606l-14.731-10.606l5.887,14.396l-9.576,6.816
			C49.207-594.994,63.961-596.49,72.776-594.994z"/>
	</g>
	<g>
		<path class="icon" d="M75.33-603.26l-2.474-0.898c0.046-0.13,4.417-13.212-3.113-17.974l1.375-2.298
			C80.462-618.527,75.548-603.875,75.33-603.26z"/>
	</g>
	<path class="icon" d="M125.929-551.925c0-5.953-3.431-11.053-8.387-13.591c1.354-2.278,2.179-4.911,2.179-7.76
		c0-8.46-6.859-15.318-15.32-15.318c-1.29,0-2.52,0.211-3.713,0.508c-2.812-3.283-6.94-5.413-11.597-5.413
		c-4.934,0-9.275,2.368-12.072,5.987c-2.804-3.618-7.136-5.987-12.072-5.987c-2.805,0-5.402,0.803-7.659,2.124
		c-2.261-1.32-4.853-2.124-7.654-2.124c-8.463,0-15.32,6.854-15.32,15.314c0,0.012,0.006,0.02,0.006,0.029
		c-8.326,0.158-15.031,6.929-15.031,15.286c0,3.9,1.501,7.415,3.889,10.117c-2.388,2.705-3.889,6.219-3.889,10.111
		c0,5.875,3.341,10.911,8.182,13.483c-0.069,0.61-0.18,1.208-0.18,1.834c0,7.356,5.189,13.489,12.104,14.967
		c0,0.121-0.034,0.236-0.034,0.352c0,8.463,6.855,15.317,15.314,15.317c0,8.462,6.857,15.32,15.316,15.32
		c6.366,0,11.821-3.883,14.132-9.407c0.395,0.032,0.78,0.122,1.189,0.122c8.459,0,15.32-6.86,15.32-15.317
		c0-0.34-0.08-0.65-0.102-0.978c5.869-2.148,10.08-7.726,10.08-14.341c0-0.431-0.087-0.843-0.127-1.267
		c5.429-2.356,9.239-7.752,9.239-14.05c0-0.971-0.109-1.907-0.283-2.83C123.353-542.212,125.929-546.759,125.929-551.925z
		 M72.844-572.109c0.734,6.135,5.95,10.897,12.292,10.897c6.026,0,11.043-4.31,12.156-10.018c0.054,0.491,0.093,0.987,0.093,1.493
		c0,6.845-5.552,12.389-12.394,12.389c-6.838,0-12.383-5.544-12.383-12.389C72.61-570.545,72.691-571.337,72.844-572.109z
		 M74.254-529.74c0.041,0.335,0.069,0.675,0.069,1.022c0,4.688-3.796,8.485-8.486,8.485c-4.686,0-8.483-3.797-8.483-8.485
		c0-0.557,0.055-1.099,0.161-1.623c0.505,4.203,4.08,7.464,8.417,7.464C70.062-522.877,73.494-525.833,74.254-529.74z
		 M49.882-545.919c0-0.555,0.061-1.102,0.16-1.623c0.504,4.201,4.079,7.46,8.419,7.46c4.128,0,7.561-2.953,8.32-6.859
		c0.043,0.336,0.07,0.673,0.07,1.022c0,4.686-3.797,8.482-8.489,8.482C53.687-537.437,49.882-541.233,49.882-545.919z
		 M45.196-572.109c0.736,6.135,5.959,10.897,12.294,10.897c6.029,0,11.046-4.31,12.152-10.018c0.064,0.491,0.101,0.987,0.101,1.493
		c0,6.845-5.547,12.389-12.389,12.389c-6.843,0-12.389-5.544-12.389-12.389C44.965-570.545,45.051-571.337,45.196-572.109z
		 M25.167-563.243c0-0.508,0.052-1.004,0.15-1.481c0.457,3.833,3.716,6.812,7.677,6.812c3.774,0,6.911-2.697,7.604-6.265
		c0.041,0.305,0.063,0.615,0.063,0.933c0,4.279-3.468,7.749-7.747,7.749C28.636-555.494,25.167-558.964,25.167-563.243z
		 M29.902-544.052c0-0.433,0.049-0.855,0.125-1.267c0.395,3.277,3.184,5.818,6.571,5.818c3.22,0,5.896-2.304,6.488-5.347
		c0.031,0.258,0.055,0.525,0.055,0.796c0,3.655-2.965,6.615-6.617,6.615C32.865-537.437,29.902-540.397,29.902-544.052z
		 M41.397-519.403c-4.684,0-8.485-3.8-8.485-8.485c0-0.556,0.057-1.097,0.158-1.625c0.507,4.204,4.085,7.458,8.422,7.458
		c4.131,0,7.564-2.947,8.324-6.855c0.04,0.336,0.066,0.678,0.066,1.022C49.882-523.203,46.08-519.403,41.397-519.403z
		 M55.359-505.071c-4.688,0-8.489-3.797-8.489-8.483c0-0.556,0.063-1.1,0.164-1.626c0.506,4.203,4.076,7.463,8.419,7.463
		c4.13,0,7.567-2.95,8.324-6.862c0.043,0.34,0.06,0.679,0.06,1.025C63.836-508.868,60.045-505.071,55.359-505.071z M69.743-491.223
		c-4.683,0-8.48-3.802-8.48-8.483c0-0.556,0.047-1.1,0.154-1.626c0.511,4.204,4.08,7.461,8.422,7.461
		c4.126,0,7.559-2.953,8.324-6.859c0.037,0.337,0.06,0.675,0.06,1.024C78.223-495.024,74.433-491.223,69.743-491.223z
		 M76.515-540.868c0-0.554,0.052-1.094,0.158-1.619c0.507,4.203,4.077,7.46,8.422,7.46c4.12,0,7.562-2.954,8.316-6.863
		c0.046,0.338,0.071,0.673,0.071,1.022c0,4.691-3.799,8.488-8.489,8.488C80.311-532.381,76.515-536.178,76.515-540.868z
		 M93.482-510.123c-4.686,0-8.489-3.799-8.489-8.483c0-0.561,0.061-1.102,0.161-1.628c0.509,4.203,4.077,7.46,8.419,7.46
		c4.129,0,7.568-2.95,8.33-6.859c0.041,0.336,0.052,0.676,0.052,1.027C101.954-513.921,98.169-510.123,93.482-510.123z
		 M105.864-527.328c-4.678,0-8.478-3.8-8.478-8.482c0-0.557,0.058-1.098,0.162-1.628c0.5,4.201,4.07,7.464,8.418,7.464
		c4.126,0,7.562-2.953,8.319-6.863c0.044,0.336,0.066,0.679,0.066,1.026C114.351-531.128,110.555-527.328,105.864-527.328z
		 M110.749-545.388c-4.689,0-8.491-3.799-8.491-8.486c0-0.554,0.061-1.094,0.164-1.62c0.499,4.2,4.074,7.46,8.42,7.46
		c4.12,0,7.561-2.951,8.316-6.862c0.044,0.335,0.073,0.675,0.073,1.022C119.232-549.186,115.434-545.388,110.749-545.388z"/>
</g>
<g>
	<path class="icon" d="M253.542-552.259c0,0-0.019-0.039-0.062-0.099c-0.903,1.041-1.833,2.115-2.807,3.219L253.542-552.259z"/>
	<path class="icon" d="M262.031-594.879c-15.761-13.786-28.189,1.328-28.189,1.328s13.501,9.886,11.21,17.137
		c-4.694-0.508-13.881-12.465-14.714-13.306c-5.582,5.82-12.494,13.866-21.614,24.477c-8.23,9.572-15.23,18.852-21.076,27.561
		c2.783,1.632,5.776,4.853,7.354,11.22l-9.071-8.576c-16.393,25.078-22.986,45.105-21.111,53.313
		c6.57,0.926,16.649-3.064,28.96-11.617l-10.861-10.274c0,0,8.264-0.771,12.412,9.214c13.176-9.416,28.793-23.948,45.434-43.314
		c3.624-4.219,6.911-7.987,9.907-11.422l-0.888,0.973l-10.489-10.538c7.481-2.836,13.509,5.392,14.184,6.345
		C275.242-577.304,277.808-581.324,262.031-594.879z M214.992-554.672c0,0,10.202-1.004,13.629,12.885L214.992-554.672z"/>
	<path class="icon" d="M286.452-602.38l-11.571,0.473l7.26-7.888c1.232-1.33,4.303-5.462,2.985-6.683
		c-1.325-1.219-6.551,0.936-7.776,2.262l-7.276,7.888l-0.438-10.72c-0.074-1.802-1.318-7.229-3.12-7.156
		c-1.814,0.07-3.466,5.621-3.4,7.421l0.771,18.589c-0.015,0.016,0.004,0.037,0.012,0.052c0.023,0.407,0.112,0.806,0.283,1.18
		c0.372,0.785,1.023,1.392,1.833,1.696c0.391,0.14,0.802,0.204,1.206,0.186c0.015,0.004,0.031,0.017,0.05,0.01
		c0.019,0.008,0.039-0.01,0.054-0.011c0.135-0.008,0.26-0.066,0.387-0.087c0.147,0.014,0.275,0.072,0.419,0.064l18.595-0.76
		c1.799-0.069,9.795-0.207,9.726-2.014C296.375-599.678,288.258-602.453,286.452-602.38z"/>
</g>
<g>
	<path class="icon" d="M382.075-615.292c-2.489-4.598-6.564-7.647-12.117-9.074l-1.315,5.1c4.124,1.062,7.002,3.183,8.788,6.474
		c4.572,8.439,0.244,21.872,0.197,22.003h4.993C382.832-591.418,387.738-604.813,382.075-615.292z"/>
	<g>
		<path class="icon" d="M448.009-536.109c0-22.092-6.271-43.718-30.795-49.749c-14.248-12.202-31.956-4.93-31.956-4.93h-3.329
			v0.312c0,0,2.713,7.883-0.681,17.691c0,0-0.622-16.027-3.592-18.003c0,0-13.31-7.648-25.118,0
			c-22.52-8.691-44.197,24.479-44.197,54.679c0,30.2,23.599,54.676,52.706,54.676c-6.664-7.135-12.053-15.498-16.194-24.443
			c-4.173-8.944-7.02-18.582-8.237-28.488c-1.125-9.899-0.537-20.088,2.221-29.676c2.628-9.611,7.48-18.484,13.701-25.969
			c-4.515,8.634-7.859,17.673-9.705,26.935c-1.812,9.272-2.129,18.751-0.984,28.102c1.049,9.36,3.514,18.565,6.786,27.515
			c3.381,8.908,7.397,17.68,12.413,26.023h12.66c7.682-5.024,8.937-18.003,8.937-18.003c3.399,9.805-4.769,18.003-4.769,18.003
			h17.433c6.581,0,12.854-1.304,18.655-3.582c1.941-2.227,3.597-4.452,4.844-6.937c1.972-3.776,3.085-7.92,4.01-12.708
			c2.199,4.457,1.797,9.966-0.498,14.516c-0.293,0.569-3.61,3.961-3.968,4.495C434.318-495.052,448.009-515.705,448.009-536.109z
			 M423.016-559.637c0.216-4.919,0.262-9.142-0.815-13.269c-0.992-4.133-2.89-7.992-5.334-12.202
			c4.585,1.896,7.903,6.317,9.166,11.258C427.27-568.881,426.194-563.401,423.016-559.637z"/>
	</g>
</g>
<g>
	<path class="icon" d="M295.562-439.981c-2.229-2.219-5.179-5.176-8.347-8.341l6.164-10.485l-2.454-2.454l-10.735,5.92
		c-3.679-3.693-7.242-7.25-9.994-10c-6.936-6.947-23.986,11.685-23.986,11.685l24.971,3.574l-3.954,17.442l16.446-4.957
		l-0.356,21.04C283.315-416.557,301.901-433.638,295.562-439.981z"/>
	<path class="icon" d="M268.017-447.663l-21.427-3.067c0,0-53.373,32.852-73.218,54.502c-0.527,0.572-7.068,7.135-7.068,7.135
		c-15.174,15.182-15.174,39.796,0,54.974c15.186,15.185,39.796,15.185,54.978,0c1.578-1.58,3.877-3.278,5.133-5.042
		c37.334-40.959,53.485-72.702,53.485-72.702l0.384-22.069l-16.504,4.976L268.017-447.663z"/>
</g>
<g>
	<path class="icon" d="M531.287-601.797c-66.845-20.008-67.766,14.852-58.054,57.75c7.302,25.561,23.953,75.334,60.629,60.409
		c37.908,9.622,47.488-24.049,53.074-58.749C592.995-572.685,598.136-623.326,531.287-601.797z M533.26-489.819
		c-2.186-0.059-4.324-0.532-6.209-1.515c-1.892-0.948-3.598-2.276-4.705-4.078c3.968,1.142,7.43,1.953,10.937,1.953
		c3.513,0.077,6.884-0.798,10.893-1.953C541.912-491.906,537.618-489.786,533.26-489.819z"/>
	<path class="icon" d="M525.151-605.439c6.822,3.186,8.868,1.368,8.868,1.368c4.5,0,14.094-10.236,14.094-10.236l-9.085,2.73
		v-5.228l-5.923,5.457v-13.187h-3.587c0,0,0,7.729,0,14.098c0,6.365-16.643-7.508-16.643-7.508S516.965-608.16,525.151-605.439z"/>
</g>
<g>
	<path class="icon" d="M555.959-742.467c-9.204,0.042-26.449,0.322-26.449,0.322s-21.379-2.671-29.543,1.182
		c-12.661,5.972-20.61,19.402-20.61,36.249c0,1.8,0.204,3.596,0.543,5.365c2.288,21.289,36.204,38.597,46.554,43.403
		c0.369,0.454,0.754,0.909,0.935,1.361c0.249,1.232,0.102,0.729-1.089,1.659c-1.161,0.586-2.793,1.049-4.395,1.442
		c-2.243,0.124-4.38,0.415-6.585,0.865c-2.322,0.562-4.617,1.114-7.097,2.95c-0.592,0.581-1.285,1.223-1.591,2.427
		c-0.29,1.183,0.105,2.373,0.595,3.023c0.992,1.387,2.096,1.934,3.151,2.552c2.208,1.007,4.41,1.679,6.694,2.038
		c-1.787-1.464-3.664-2.746-5.179-4.235c-0.75-0.671-1.504-1.487-1.655-2.053c0.008-0.579-0.026,0.128,0.531-0.366
		c1.244-0.695,3.471-1.093,5.484-1.457c2.077-0.354,4.278-0.554,6.355-0.777l0.343-0.043l0.117-0.03
		c1.885-0.533,3.784-1.092,5.703-2.443c0.92-0.659,2.039-1.525,2.582-3.187c0.343-1.125,0.102-2.141-0.26-3.035
		c7.995-3.605,45.619-21.639,48.028-44.094c0.35-1.77,0.539-3.566,0.539-5.365C579.253-730.98,565.159-742.505,555.959-742.467z"/>
	<path class="icon" d="M532.118-743.274c0.075-0.075-0.046-0.307-0.019-0.403c0.094,0.03,0.158,0.118,0.245,0.118
		c0.075,0,0.151-0.088,0.226-0.118c0.037,0.096-0.083,0.328-0.015,0.403c1.289,1.301,7.93-3.234,14.821-10.128
		c6.894-6.89,11.432-13.533,10.128-14.819c-1.3-1.302-7.93,3.237-14.82,10.13c-3.374,3.364-7.026,1.743-7.026-3.102
		c0-9.749-1.489-17.642-3.313-17.642c-1.836,0-3.321,7.893-3.321,17.642c0,4.845-3.656,6.466-7.03,3.102
		c-6.894-6.892-13.524-11.432-14.824-10.13c-1.304,1.285,3.238,7.929,10.124,14.819
		C524.192-746.507,530.829-741.973,532.118-743.274z"/>
</g>
<path class="icon" d="M381.352-674.048c2.707,8.167,9.373,13.504,16.954,15.719c4.017,7.033,12.261,10.809,20.219,8.112
	c3.525-1.138,6.173-3.545,8.197-6.339c2.496,0.037,5.019-0.077,7.512-0.982c11.744-3.873,18.12-16.589,14.2-28.341
	c-1.397-4.18-4.153-7.378-7.341-10.018c2.851-3.198,4.123-7.743,2.659-12.136c-2.178-6.532-9.315-10.037-15.788-7.842
	c-3.352,1.099-5.914,3.508-7.301,6.455c-5.837-6.609-15.182-9.536-24.005-6.609c-10.789,3.642-16.626,14.545-14.671,25.374
	C380.032-685.492,379.454-679.731,381.352-674.048z"/>
<path class="icon" d="M307.892-724.024c2.736,8.169,9.402,13.506,17.07,15.721c3.93,7.033,12.146,10.769,20.152,8.13
	c3.506-1.194,6.193-3.602,8.197-6.376c2.466,0.057,5.029-0.077,7.495-0.925c11.779-3.93,18.108-16.587,14.208-28.436
	c-1.397-4.161-4.153-7.341-7.331-9.998c2.833-3.218,4.123-7.745,2.64-12.042c-2.255-6.569-9.286-10.134-15.808-7.917
	c-3.342,1.097-5.895,3.486-7.272,6.453c-5.77-6.646-15.183-9.517-24.092-6.532c-10.722,3.545-16.5,14.451-14.585,25.317
	C306.582-735.486,306.053-729.705,307.892-724.024z"/>
<g>
	<path class="icon" d="M425.986-431.179c-0.154,0-0.288,0.043-0.44,0.043c-2.548-6.656-8.948-11.403-16.502-11.403
		c-0.104,0-0.217,0.033-0.325,0.033c-1.401-6.606-7.256-11.566-14.287-11.566c-0.009,0-0.017,0-0.032,0
		c-2.162-4.188-6.482-7.083-11.522-7.083c-6.567,0-11.947,4.895-12.817,11.225c-2.084-0.959-4.383-1.529-6.818-1.529
		c-3.169,0-6.109,0.939-8.61,2.505c-2.181-1.566-4.838-2.505-7.722-2.505c-7.369,0-13.327,5.964-13.327,13.325
		c0,0.837,0.096,1.661,0.243,2.465c-0.151,0-0.29-0.044-0.447-0.044c-8.807,0-16.141,6.276-17.798,14.589
		c-5.246,3.676-8.69,9.731-8.69,16.625c0,10.654,8.246,19.314,18.697,20.143c0.776,1.713,1.785,3.257,2.926,4.715
		c2.132,10.774,11.616,18.905,23.021,18.905c3.116,0,6.072-0.657,8.777-1.776v-0.93l1.614-0.713c2.987-1.34,4.915-4.3,4.915-7.541
		c0-2.55-1.145-4.381-2.113-5.467l-2.316-2.59l3.086-1.62c2.739-1.457,4.435-4.24,4.435-7.276c0-1.063-0.209-2.106-0.621-3.123
		l-1.538-3.752h11.406l0.802,0.809c2.67,2.696,6.244,3.96,10.336,3.073l3.294-0.696v8.143l-1.689,0.691
		c-3.127,1.286-5.144,4.275-5.144,7.649c0,3.364,2.017,6.357,5.144,7.638l1.689,0.692v4.89c2.759,1.152,5.725,1.9,8.892,1.9
		c12.967,0,23.478-10.522,23.478-23.485c12.963,0,23.47-10.509,23.47-23.481C449.456-420.667,438.949-431.179,425.986-431.179z"/>
	<path class="icon" d="M384.203-375.894c0-4.589,2.839-8.523,6.849-10.165v-2.954c-0.954,0.208-1.926,0.327-2.943,0.327
		c-3.882,0-7.38-1.59-9.911-4.147h-6.207c0.523,1.282,0.824,2.672,0.824,4.147c0,4.216-2.405,7.842-5.896,9.69
		c1.72,1.93,2.808,4.463,2.808,7.269c0,4.47-2.689,8.308-6.543,10.024v33.06h27.868v-37.08
		C387.043-367.369,384.203-371.297,384.203-375.894z"/>
</g>
<g>
	<path class="icon" d="M597.049-420.622c-17.359-30.96-33.442-13.943-49.12-3.932c2.906,1.815,4.724,4.076,4.724,6.572
		c0,5.872-9.62,10.644-21.477,10.644c-11.865,0-21.489-4.772-21.489-10.644c0-2.956,2.471-5.633,6.451-7.575
		c-25.854-12.701-48.835-24.111-57.13,4.935c-8.466,34.491,30.896,69.033,69.02,69.033
		C566.145-351.589,615.929-381.088,597.049-420.622z"/>
	<path class="icon" d="M511.878-418.13c0,5.069,8.466,9.185,18.914,9.185c10.448,0,18.897-4.116,18.897-9.185
		c0-5.069-2.575-7.456-19.587-8.096C516.138-425.557,511.878-423.199,511.878-418.13z"/>
</g>
<g>
	<path class="icon" d="M-80.407-281.879c-54.445-8.169-69.418,20.312-69.418,53.766c0,33.448,31.076,60.564,69.418,60.564
		c38.333,0,69.414-27.116,69.414-60.564C-10.992-261.567-27.325-292.773-80.407-281.879z"/>
	<path class="icon" d="M-89.565-285.285l10.448,1.191c11.435-0.57,14.154-14.298,14.154-14.298l-9.727,6.865v-9.725l-6.866,8.58
		l-4.002-17.736v18.881l-10.301-5.151l5.169,8.461L-89.565-285.285z"/>
</g>
<path class="icon" d="M142.694-245.501c0,33.932-25.596,58.246-61.12,58.246c-35.52,0-80.268-11.564-80.268-45.486
	c0-33.923,17.789-47.518,53.309-47.518C90.143-280.259,128.795-309.241,142.694-245.501z"/>
<path class="icon" d="M248.665-277.151c-8.427,0-15.064,2.258-20.214,6.299c-0.454-1.78-1.538-3.217-3.444-4.27
	c-0.301-1.534-0.608-3.028-0.917-4.435c5.305,1.802,9.996,2.12,14.49,1.949c5.048-0.28,9.762-1.382,14.195-3.168
	c4.426-1.79,8.563-4.311,12.364-7.633c3.77-3.41,7.288-7.456,9.953-13.587c-6.19-2.524-11.532-2.954-16.613-2.758
	c-5.043,0.29-9.759,1.38-14.18,3.199c-4.42,1.817-8.558,4.334-12.366,7.663c-3.177,2.881-6.168,6.223-8.63,10.861
	c-5.07-21.433-9.955-25.605-12.835-25.787l-0.358,5.597c-0.472-0.027-0.707-0.162-0.71-0.164c0.226,0.129,4.537,2.979,9.522,26.526
	c-1.554-0.189-3.324-0.29-5.341-0.29c-31.766,0-57.51,24.18-57.51,54.006s25.744,54.006,57.51,54.006
	c11.005,0,14.825-2.909,15.128-7.942c5.106,4.986,11.676,7.942,19.956,7.942c25.56,0,46.279-24.18,46.279-54.006
	S274.225-277.151,248.665-277.151z"/>
<g>
	<path class="icon" d="M446.083-302.52c-0.824,0.156-3.495,0.719-6.071,1.871c-0.143-0.144-0.255-0.312-0.366-0.481
		c1.389-2.919,2.038-5.851,2.065-5.981c0,0,0.033-0.149,0.06-0.26c2.408-2.124,6.609-3.221,8.403-3.608
		c-0.476,1.783-1.779,5.982-4.007,8.372C446.139-302.578,446.11-302.548,446.083-302.52z"/>
</g>
<g>
	<path class="icon" d="M438.157-300.602c-1.675,0.362-4.99,1.24-7.551,2.885c0.566-2.264,0.749-4.107,0.759-4.202
		c0,0,0.021-0.203,0.041-0.405c0.036-0.04,0.064-0.083,0.1-0.12c0.074-0.077,0.149-0.154,0.223-0.232
		c2.318-2.364,6.899-3.557,8.79-3.963C440.178-305.355,439.405-302.821,438.157-300.602z"/>
</g>
<g>
	<path class="icon" d="M421.13-281.748c-1.55-1.522-1.148-3.757,1.103-6.167c0.077-0.082,0.154-0.163,0.235-0.245
		c2.32-2.364,6.9-3.555,8.791-3.963c-0.475,1.785-1.778,5.984-4.009,8.373c-0.046,0.049-0.092,0.097-0.142,0.146
		C423.251-279.668,421.658-281.232,421.13-281.748z"/>
</g>
<g>
	<path class="icon" d="M434.107-290.792c-0.957,0.376-1.762,0.799-2.488,1.246c0.635-1.806,0.94-3.199,0.957-3.275l0.174-0.811
		l-0.819,0.134c-0.073,0.011-1.446,0.243-3.235,0.775c0.506-0.9,0.965-1.956,1.36-3.178c2.421-2.095,6.573-3.173,8.352-3.56
		c-0.478,1.785-1.779,5.985-4.009,8.373c-0.047,0.049-0.093,0.097-0.14,0.146C434.259-290.941,434.116-290.802,434.107-290.792z
		 M421.477-282.529L421.477-282.529L421.477-282.529z"/>
</g>
<g>
	<path class="icon" d="M426.981-292.244c-2.197,0.809-3.893,1.78-5.07,2.889c-0.219-0.092-0.44-0.176-0.642-0.333
		c-0.664-0.508-1.065-1.194-1.168-1.991c-0.166-1.279,0.432-2.849,1.728-4.533c0.143-0.186,0.296-0.365,0.461-0.542
		c2.175-2.33,6.104-3.863,7.793-4.443C429.818-299.333,428.999-294.867,426.981-292.244L426.981-292.244z"/>
</g>
<g>
	<path class="icon" d="M445.704-301.367c-0.462,1.879-1.786,6.423-4.215,8.674c-0.079,0.073-0.156,0.146-0.237,0.215
		c-0.04,0.036-0.083,0.061-0.124,0.097c-0.203,0.016-0.405,0.031-0.405,0.031c-0.093,0.009-1.945,0.139-4.222,0.639
		c1.718-2.513,2.693-5.803,3.1-7.467C441.857-300.359,444.411-301.062,445.704-301.367z"/>
</g>
<g>
	<path class="icon" d="M431.153-288.152c2.627-2.008,7.096-2.813,8.964-3.072c-0.588,1.689-2.132,5.612-4.469,7.78
		c-0.176,0.163-0.358,0.316-0.542,0.458c-1.692,1.293-3.261,1.885-4.541,1.715c-0.795-0.106-1.482-0.513-1.986-1.174
		c-0.159-0.206-0.242-0.425-0.332-0.642C429.358-284.263,430.338-285.954,431.153-288.152L431.153-288.152z"/>
</g>
<path class="icon" d="M318.698-169.098c-0.039-0.027,0.03,0.033-0.007,0.007l105.473-105.473c2.586-2.759,4.656-4.652,5.469-5.47
	c-0.489-0.266-1.103-0.807-1.47-1.274c-0.239-0.302-0.419-0.616-0.553-0.938c-2.683,2.345-5.606,3.063-7.341,1.346
	c-0.711-0.704-2.278-3.853,0.731-7.623c-0.169-0.097-0.335-0.203-0.501-0.332c-0.26-0.202-0.924-0.831-1.267-1.383
	c-0.307,0.323-105.776,105.115-110.836,110.836L318.698-169.098z"/>
<text transform="matrix(1 0 0 1 773.5081 -522.9786)"><tspan x="0" y="0" font-family="'MyriadPro-Regular'" font-size="12">$apples:#DD074E;</tspan><tspan x="0" y="14.4" font-family="'MyriadPro-Regular'" font-size="12">$apricots:#F7AE49;</tspan><tspan x="0" y="28.8" font-family="'MyriadPro-Regular'" font-size="12">$asparagus:#8CA874;</tspan><tspan x="0" y="43.2" font-family="'MyriadPro-Regular'" font-size="12">$beets:#8F0142;</tspan><tspan x="0" y="57.6" font-family="'MyriadPro-Regular'" font-size="12">$bell-peppers:#EE881C;</tspan><tspan x="0" y="72" font-family="'MyriadPro-Regular'" font-size="12">$broccoli:#A2C352;</tspan><tspan x="0" y="86.4" font-family="'MyriadPro-Regular'" font-size="12">$cabbage:#E7EFA2;</tspan><tspan x="0" y="100.8" font-family="'MyriadPro-Regular'" font-size="12">$cantaloupe:#FFDB96;</tspan><tspan x="0" y="115.2" font-family="'MyriadPro-Regular'" font-size="12">$carrots:#F7B259;</tspan><tspan x="0" y="129.6" font-family="'MyriadPro-Regular'" font-size="12">$cauliflower:#FFFCF3;</tspan><tspan x="0" y="144" font-family="'MyriadPro-Regular'" font-size="12">$celery:#D7EBBE;</tspan><tspan x="0" y="158.4" font-family="'MyriadPro-Regular'" font-size="12">$cherries:#C7497D;</tspan><tspan x="0" y="172.8" font-family="'MyriadPro-Regular'" font-size="12">$chile-peppers:#AE0914;</tspan><tspan x="0" y="187.2" font-family="'MyriadPro-Regular'" font-size="12">$cucumbers:#7EB641;</tspan><tspan x="0" y="201.6" font-family="'MyriadPro-Regular'" font-size="12">$eggplant:#8E598B;</tspan><tspan x="0" y="216" font-family="'MyriadPro-Regular'" font-size="12">$grapes:#7A69A8;</tspan><tspan x="0" y="230.4" font-family="'MyriadPro-Regular'" font-size="12">$green-beans:#C3DF79;</tspan><tspan x="0" y="244.8" font-family="'MyriadPro-Regular'" font-size="12">$herbs:#24AE51;</tspan><tspan x="0" y="259.2" font-family="'MyriadPro-Regular'" font-size="12">$honeydew:#F7C78A;</tspan><tspan x="0" y="273.6" font-family="'MyriadPro-Regular'" font-size="12">$lettuce:#D7E7A2;</tspan><tspan x="0" y="288" font-family="'MyriadPro-Regular'" font-size="12">$onions:#FFF7E7;</tspan><tspan x="0" y="302.4" font-family="'MyriadPro-Regular'" font-size="12">$peaches:#FBD7A3;</tspan><tspan x="0" y="316.8" font-family="'MyriadPro-Regular'" font-size="12">$pears:#EBF3AE;</tspan><tspan x="0" y="331.2" font-family="'MyriadPro-Regular'" font-size="12">$pinto-beans:#FFF7E7;</tspan><tspan x="0" y="345.6" font-family="'MyriadPro-Regular'" font-size="12">$plums:#7A69A8;</tspan><tspan x="0" y="360" font-family="'MyriadPro-Regular'" font-size="12">$popcorn:#FFFBA6;</tspan><tspan x="0" y="374.4" font-family="'MyriadPro-Regular'" font-size="12">$potatos:#EBDBB6;</tspan><tspan x="0" y="388.8" font-family="'MyriadPro-Regular'" font-size="12">$pumpkins:#FBBA41;</tspan><tspan x="0" y="403.2" font-family="'MyriadPro-Regular'" font-size="12">$raspberries:#BE003C;</tspan><tspan x="0" y="417.6" font-family="'MyriadPro-Regular'" font-size="12">$rhubarb:#DF6169;</tspan><tspan x="0" y="432" font-family="'MyriadPro-Regular'" font-size="12">$squash:#FFD26A;</tspan><tspan x="0" y="446.399" font-family="'MyriadPro-Regular'" font-size="12">$tomatoes:#EE881C;</tspan><tspan x="0" y="460.8" font-family="'MyriadPro-Regular'" font-size="12">$watermelon:#EFB4BD;</tspan></text>
<path class="icon" d="M558.782-251.475c-10.729,3.874-16.768,2.055-27.177,6.344c-9.194,3.215-11.908,7.866-20.192,10.183
	c-4.173,1.167-8.558,1.441-13.03,1.663c4.739-1.799,8.289-4.241,10.402-6.1c5.227-4.606,18.174-8.686,20.526-9.848
	c5.984-3.175,30.943-13.745,37.614-26.845c5.413-10.625,9.297-27.442,8.243-32.976c-0.365-1.904-23.276,13.85-31.064,18.997
	c-9.519,6.294-15.812,5.944-24.918,12.567c-8.175,5.29-9.722,10.447-17.226,14.65c-11.214,6.284-26.025,5.318-36.246,17.87
	c-0.745,0.913,1.706,11.103,10.153,13.048c1.944,0.448,3.824,0.735,5.64,0.89c-3.225,1.019-6.417,2.543-9.536,4.913
	c-0.936,0.709-0.956,11.196,6.799,15.068c15.05,7.516,28.186,3.419,33.74,0.493c6.165-3.242,19.711-4.156,22.27-4.729
	c1.109-0.287,2.807-0.652,4.895-1.109c-3.625,2.397-7.149,4.795-9.187,6.145c-6.656,4.417-11.061,4.178-17.43,8.827
	c-5.718,3.71-6.794,7.323-12.044,10.273c-7.838,4.41-18.215,3.748-25.351,12.545c-0.521,0.631,1.207,7.775,7.119,9.126
	c11.481,2.614,19.744-2.352,23.029-5.262c3.66-3.232,12.713-6.1,14.363-6.915c4.183-2.226,21.643-9.654,26.305-18.831
	c2.85-5.62,5.084-13.697,5.693-18.992c9.524-2.719,20.167-6.832,25.495-13.045c7.765-9.051,15.5-24.478,15.775-30.11
	C593.544-264.561,567.564-254.642,558.782-251.475z"/>
<g id="Your_Icon">
	<g>
		<path class="icon" d="M-108.665-112.318c0.202-0.266,0.608-0.504,0.994-0.746c0.952-0.456,2.028-0.885,3.229-1.249
			c1.333-0.332,2.696-0.553,3.697-0.553c0.287-0.012,0.581-0.012,0.903-0.012c4.474,0,8.983,1.684,9.735,4.303
			c0.167,0.575,0.097,1.059-0.235,1.506c-1.16,1.544-6.017,3.326-11.046,3.326l-0.898-0.01c-1.783-0.043-2.924-0.158-3.739-0.386
			c-0.489-0.511-1.065-0.892-1.657-1.216c-0.406-0.779-0.602-1.914-1.136-3.615C-109.04-111.675-108.828-112.071-108.665-112.318z
			 M-103.496-77.309c-0.616,2.322-7.371,3.798-9.92,4.181c-0.707,0.096-5.349,0.239-5.479-2.001
			c-0.131-2.24,5.663-4.263,10.273-5.216C-104.012-81.305-102.931-79.479-103.496-77.309z M-129.242-90.183
			c-2.262-2.002,0.097-7.492,2.271-9.432c0.871-0.548,3.893-1.57,5.62-1.57c0.876,0,1.143,0.342,1.272,0.87
			c0.805,3.244-0.097,6.648-2.271,8.68C-123.981-90.124-126.982-88.184-129.242-90.183z M-123.14-84.982
			c1.925-2.815,5.234-4.643,8.196-6.044c0.018-0.012,4.571-1.768,6.31-0.028c1.741,1.739,1.245,5.104-0.565,6.364
			c-4.033,2.779-9.175,5.29-11.87,4.419C-123.764-81.14-124.477-83.032-123.14-84.982z M-120.612-67.883
			c0-0.006,0.136-0.12,0.662-0.214c0.043,0,3.903-1.261,7.316-1.261c1.814,0,3.213,0.185,4.153,0.551
			c2.044,0.807,3.483,2.515,4.12,3.921c0.158,0.746,0.202,1.429,0.175,2.073c-0.082,0.229-0.142,0.451-0.294,0.68
			c-0.466,0.659-1.391,0.994-2.751,0.994c-2.597,0-6.216-1.303-8.221-2.576C-119.558-66.308-120.525-67.71-120.612-67.883z
			 M-114.398-55.78c0.218-0.227,0.39-0.396,0.435-0.433c2.749-2.424,6.434-3.994,8.963-4.109c0.571,0.734,1.044,1.417,2.101,1.957
			c0.699,0.351,0.961,0.873,0.961,1.491c0,0.006,0,0.012,0,0.012c0,0.305,0.43,0.637,0.406,0.977c0,0,0.161,0.006,0.157,0.013
			c-0.049,0.846-0.341,1.775-0.85,2.663c-2.419,2.016-10.485,3.39-13.435,1.835C-115.999-52.776-114.699-54.203-114.398-55.78z
			 M-97.909-47.512c-0.614,2.321-7.37,3.798-9.919,4.179c-0.707,0.097-5.349,0.239-5.479-2.001c-0.13-2.24,5.665-4.262,10.273-5.218
			C-98.425-51.508-97.344-49.679-97.909-47.512z M-98.371-97.054c-2.609-0.35-3.718-2.055-4.837-3.904
			c-0.004-0.19-0.021-0.396-0.021-0.563c0.009-0.925,0.462-1.686,1.319-2.289c0.408,0.015,0.756,0.037,1.222,0.048l0.941,0.015
			c2.539,0,5.983-1.047,7.724-1.396c1.738-0.348,3.141,2.189,2.521,2.696C-92.815-97.779-95.762-96.707-98.371-97.054z
			 M-92.011-88.794c-3.011,0.846-4.967-1.599-4.271-4.036c0.695-2.431,6.848-5.58,9.402-7.727c0.272-0.045,0.81-0.082,1.222,0.194
			c0.418,0.279,0.668,0.855,0.746,1.714C-84.718-96.441-88.999-89.641-92.011-88.794z M-89.114-84.434
			c-0.351-2.902,2.93-5.37,6.485-7.752c0.793-0.631,3.543-1.266,1.576,5.279c-0.805,2.697-3.665,4.569-5.727,4.569
			c-0.447,0-0.779-0.16-1.112-0.323C-88.273-83.283-88.664-83.89-89.114-84.434z M-80.793-63.967
			c-1.502,2.729-4.187,5.236-5.523,4.496c-0.653-0.369-1.018-1.098-1.07-2.055c-0.082-1.587,0.75-3.419,2.264-4.997
			c2.612-2.714,4.616-3.216,5.47-2.498C-79.124-68.542-79.249-66.754-80.793-63.967z M-78.977-73.739
			c-1.185,1.192-2.848,2.43-4.317,2.21c-0.761-0.109-1.391-0.653-1.925-1.642c-1.282-2.365-1.414-2.055-0.913-3.486
			c0.501-1.427,2.171-3.331,3.241-4.483c0.826-0.895,1.738-1.044,2.696-1.044c0.956,0,1.62,1.621,1.95,2.61
			C-77.807-78.265-77.819-74.905-78.977-73.739z M-72.368-81.844c-0.734,0.143-1.484-0.184-2.143-0.879
			c-1.086-1.16-1.63-3.099-1.488-5.278c0.25-3.761,1.458-5.436,2.569-5.436c0.713,0.022,1.775,1.472,2.386,4.598
			C-70.434-85.783-70.868-82.135-72.368-81.844z"/>
		<path class="icon" d="M-107.232-59.225c0.403,0.054,0.779,0.007,1.121-0.114C-106.47-59.287-106.806-59.225-107.232-59.225z"/>
	</g>
	<path class="icon" d="M-14.514-126.618c-0.92-1.7-4.925-8.163-14.476-12.783c-11.049-5.342-44.121-3.141-67.226,0.657
		c-3.827,0.489-7.544,1.408-11.165,2.37c-3.61,1.016-7.153,2.147-10.611,3.538c-6.902,2.82-13.206,7.054-18.491,12.322
		c-5.272,5.257-9.499,11.567-12.369,18.448c-2.876,6.88-4.369,14.343-4.387,21.806c-0.114,14.953,6.213,29.78,16.899,40.122
		c5.317,5.193,11.633,9.294,18.464,12.154c6.848,2.838,14.213,4.411,21.661,4.566c3.716,0.093,7.456,0.037,11.256-0.257
		c36.454-10.603,65.913-34.664,75.076-65.81C-5.884-103.1-9.254-116.901-14.514-126.618z M-17.009-106.88
		c0,0-3.925,4.51-4.516,4.988c-0.604,0.474-5.481,4.278-5.481,4.278s-6.053,4.756-5.46,3.925c0.592-0.838,2.135-3.332,5.113-5.941
		C-24.373-102.253-17.009-106.88-17.009-106.88z M-32.385-124.922c3.084-0.616,6.935-6.316,6.935-6.316l-4.783,8.472l-6.304,2.234
		c0,0-5.545,0.847-7.709,1.931c-2.15,1.076-8.32,8.777-8.32,8.777l-4.613-8.32l6.77-7.24c0,0,4.62-1.691,6.162-1.691
		C-42.703-127.075-35.461-124.308-32.385-124.922z M-61.967-138.478c3.556,0,21.106,1.847,23.428,1.076
		c2.306-0.767,4.771-0.767,4.771-0.767s-0.922,0.457-2.152,0.92c-1.239,0.466-2.935,2.004-4.48,1.694
		c-1.536-0.309-12.474-0.463-15.25,0.309c-2.761,0.767-7.543,1.697-7.543,1.697l-13.71,2.929l-9.707-4.317
		C-86.608-134.935-65.503-138.478-61.967-138.478z M-85.782-27.81c-1.674,0.542-3.392,1.001-5.142,1.315
		c-1.745,0.317-3.522,0.477-5.294,0.533c-3.556,0.064-7.126-0.19-10.633-0.838c-3.51-0.662-6.956-1.642-10.267-3.026
		c-6.603-2.714-12.606-6.866-17.584-11.972c-4.956-5.101-8.946-11.14-11.621-17.72c-2.663-6.572-4-13.654-4.043-20.743
		c-0.016-7.093,1.36-14.191,4.06-20.746c2.697-6.567,6.724-12.576,11.736-17.599c5.012-5.039,11.034-9.061,17.584-11.805
		c3.26-1.393,6.718-2.376,10.236-2.779c30.652-1.418,59.772,22.208,59.802,52.885C-46.963-55.929-60.652-36.419-85.782-27.81z
		 M-21.595-77.161c-0.92,0.923-6.779,10.016-6.779,10.016s-2.467,8.468-2.77,9.701c-0.306,1.233-10.327,8.477-12.024,10.321
		c-1.689,1.85-13.403,5.397-13.403,5.397l4.779-6.472l3.851-12.274l14.635-6.212l6.316-10.936c0,0,1.086-1.393,2.903-2.164
		c1.819-0.767,11.431-15.098,11.431-15.098S-20.677-78.084-21.595-77.161z"/>
	<g>
		<path class="icon" d="M-104.599-102.861c0.01-0.022,0.022-0.043,0.033-0.064c-0.022,0-0.039-0.01-0.039-0.01
			C-104.62-102.916-104.611-102.886-104.599-102.861z"/>
		<path class="icon" d="M-85.038-102.143c-0.016-0.048-0.021-0.097-0.039-0.145c-0.022,0.036-0.033,0.07-0.063,0.103
			C-85.11-102.173-85.077-102.151-85.038-102.143z"/>
	</g>
</g>
<path class="icon" d="M0.226-85.946c4.403-27.559,23.319-40.609,44.859-51.026c-1.023,2.528-0.175,6.928-1.121,9.534
	c1.557,0.531,6.141,0.297,7.851,2.24c0.99,2.522,0.757,7.063-0.561,8.972c1.755,0.863,4.342,0.893,6.729,1.121
	c4.612,2.938,2.201,12.111,2.805,17.384c2.636,23.042,33.434,25.244,36.446,44.857c3.725,24.258-23.357,28.873-41.494,19.066
	c2.356-6.24,6.114-11.083,6.729-19.066c-3.314,5.844-6.402,11.916-11.216,16.261c-5.055-1.859-8.819-5.013-12.898-7.85
	c4.953-7.01,9.26-14.664,11.777-24.111c-4.564,4.969-10.348,13.573-16.822,18.504c-5.24-3.73-6.953-10.99-10.092-16.822
	c6.185-6.153,11.39-13.282,14.579-22.432c-3.73,4.31-9.712,11.224-15.7,15.14c-3.388-7.69-3.217-20.315-1.121-29.158
	c-5.935,10.251-6.485,30.138-1.682,42.056c-4.862-3.179-9.621-6.455-11.776-12.338c0.794,9.3,6.966,18.079,16.263,20.746
	c6.342,9.546,14.291,17.483,25.232,22.43C23.552-33.76,4.319-48.168,0.226-74.733C0.226-78.469,0.226-82.207,0.226-85.946z
	 M49.571-129.122c5.306,0.068,6.885,5.739,5.608,10.653c10.228,0.003,9.031,11.33,8.411,20.748c1.911,0.413,5.624-2.765,8.971-1.121
	c0.604-5.753,3.962-8.748,10.093-8.972c0.724-4.696,3.153-7.689,7.85-8.411c0.368-5.799,2.223-10.114,7.851-10.655
	C87.744-134.035,62.311-135.404,49.571-129.122z M103.962-135.851c-2.003,2.24-1.08,8.133,0,10.653
	c-7.013,0.278-11.6,2.98-10.095,11.777c-2.876-0.449-4.256,0.599-6.168,1.121c-1.357,2.193-2.593,4.509-2.242,8.411
	c-6.628-2.329-11.107,1.84-10.093,8.971c-3.113-1.538-8.923-1.73-10.653,1.124c7.685,20.621,42.169,22.492,34.204,53.265
	c6.465-3.064,10.631-8.429,15.138-13.455c-5.619-6.906-10.775-14.275-12.897-24.674c4.365,6.851,9.211,13.221,15.701,17.946
	c1.624-3.847,4.919-8.142,4.485-11.777c-0.705-5.934-13.809-14.008-13.456-22.43c4.438,5.097,8.768,10.297,14.577,14.018
	c2.288-5.494,1.08-16.112,0-21.867c5.804,10.326,6.085,29.022,1.682,40.933c3.919-1.32,9.289-6.035,11.214-11.216
	c0.843,10.784-8.356,14.99-15.138,20.187c-7.938,6.085-12.555,18.016-22.99,20.748c23.681-3.796,41.905-17.907,46.541-42.617
	c0-4.109,0-8.223,0-12.335C140.092-112.917,119.849-122.204,103.962-135.851z"/>
<g id="Fruits" sketch:type="MSPage">
	<path id="peach" sketch:type="MSShapeGroup" class="icon" d="M222.278-115.919c-1.229-8.537-3.648-24.27-5.029-26.041
		c-1.907-2.444-4.803-3.318-4.803-6.764c0-3.447,7.856-6.709,10.594,0c2.738,6.709,2.825,29.559,2.825,29.559
		s2.294-23.699,15.435-31.586c13.141-7.887,34.539-3.184,34.539-3.184s-6.742,21.416-24.304,25.789
		c-17.562,4.373-25.096,12.675-25.096,12.675l0.032,0.339c4.074-1.86,20.383-8.358,35.648-1.118
		c17.611,8.352,21.538,20.959,21.538,38.685c0,27.063-17.271,46.838-49.187,61.419c-2.921,0.486-6.664,2.138-6.664,5.513
		c-2.736,0-7.725-4.977-10.36-5.37c-30.352-13.787-50.088-34.208-50.088-61.561c0-16.511,3.682-30.285,19.736-38.685
		C199.438-122.708,215.508-118.301,222.278-115.919z"/>
</g>
<g>
	<path class="icon" d="M63.38-710.696c0.105,0.028,0.682,0.193,1.529,0.525c0.064-3.267,1.025-7.037,2.951-11.316
		c0.015-0.028,0.544-1.298,1.133-3.716c-4.45-12.426-12.955-26.768-29.117-34.786c1.473,24.855,7.029,39.57,13.299,48.266
		C56.557-711.705,59.989-711.363,63.38-710.696z"/>
	<path class="icon" d="M69.772-729.183c0.592-3.808,0.994-8.991,0.587-15.504l-0.111-1.797l1.637,0.75
		c0.512,0.234,10.828,5.212,16.217,22.577c1.931-1.44,4.392-2.766,7.418-3.751c-11.988-24.034-39.141-31.086-51.078-33.061
		C57.587-752.178,65.289-740.222,69.772-729.183z"/>
	<path class="icon" d="M69.828-695.203c0.469-0.778,1.012-1.44,1.599-2.026c0.028-0.026,0.051-0.052,0.075-0.077
		c-0.172,0.005-0.347,0.01-0.525,0.016c-13.502,0.387-47.324,3.082-71.455,19.466c17.123,8.579,31.916,12.942,43.981,12.942
		c20.679,0,26.037-12.661,26.256-13.199c0.191-0.319,0.343-0.621,0.522-0.937C67.613-685.8,67.438-691.25,69.828-695.203z"/>
	<path class="icon" d="M67.251-699.292c1.14-0.059,2.207-0.105,3.17-0.136c-0.136-0.082-0.27-0.173-0.401-0.262
		c-1.283-0.849-2.519-1.988-3.465-3.548c-0.808-1.339-1.288-2.863-1.516-4.53c-1.259-0.576-2.129-0.826-2.155-0.832
		c-2.627-0.513-5.33-0.819-8.02-0.925c-0.518-0.02-1.035-0.033-1.553-0.036c-0.154-0.003-0.312-0.013-0.466-0.013
		c-0.335,0-0.661,0.021-0.992,0.028c-24.456,0.477-42.421,18.588-49.822,27.548c20.836-12.539,47.198-16.132,62.453-17.133
		C65.458-699.197,66.373-699.25,67.251-699.292z"/>
	<path class="icon" d="M97.707-705.557c-0.661,0.242-1.305,0.481-1.923,0.721c-0.997,0.381-1.937,0.76-2.824,1.125
		c-3.273,1.364-5.773,2.577-7.393,3.415c-0.172,0.093-0.335,0.177-0.489,0.255c0.481,0.185,0.896,0.41,1.323,0.63
		c0.448,0.231,0.865,0.474,1.257,0.734c2.523,1.673,3.978,3.917,4.787,5.92c1.491,3.698,1.231,7.215,1.221,7.362
		c-0.034,0.234-0.088,0.441-0.124,0.672c1.507,0.16,3.023,0.25,4.526,0.25c25.01,0,42.457-22.63,46.809-28.893
		C125.062-713.801,108.595-709.538,97.707-705.557z"/>
	<path class="icon" d="M90.383-713.119c0.023,0.219,0.281,3.736-1.21,7.434c-0.214,0.53-0.489,1.077-0.798,1.628
		c2.139-0.979,4.805-2.116,7.946-3.283c0.504-0.186,1.025-0.374,1.552-0.561c0.463-0.167,0.938-0.332,1.419-0.499
		c10.532-3.618,25.396-7.181,43.021-7.156c-13.935-7.142-26.055-10.807-36.018-10.807c-2.94,0-5.489,0.335-7.758,0.862
		c-0.356,0.082-0.736,0.147-1.073,0.239c-0.363,0.1-0.682,0.221-1.027,0.327c-3.262,1.032-5.776,2.487-7.678,4.027
		C89.399-718.519,89.963-715.954,90.383-713.119z"/>
	<path class="icon" d="M82.113-687.102c-0.046-0.582-0.101-1.133-0.181-1.656c-0.114-0.777-0.257-1.506-0.437-2.153
		c-0.234-0.865-0.512-1.622-0.824-2.282c-0.428-0.912-0.899-1.62-1.368-2.184c-0.51-0.616-1.007-1.04-1.436-1.341
		c-0.281-0.196-0.538-0.352-0.739-0.448c-0.123,0.002-0.239,0.01-0.366,0.013h-0.021c-0.142,0.002-0.271,0.013-0.415,0.013
		l-0.662-0.007h-0.294c-0.007,0.005-0.262,0.034-0.665,0.052c-0.038,0.025-0.072,0.049-0.106,0.074
		c-1.102,0.7-2.153,1.65-2.935,2.948c-1.821,3.028-1.805,7.246-0.015,12.53c0.159,0.464,0.311,0.927,0.497,1.409
		c0.155,0.404,0.34,0.827,0.515,1.246c0.149,0.353,0.273,0.69,0.435,1.05c0.132,0.301,2.786,6.506,2.846,18.39
		C81.242-672.717,82.542-681.424,82.113-687.102z"/>
	<path class="icon" d="M84.584-697.907c-1.316,0.258-2.693,0.461-4.158,0.582c0.732,0.754,1.486,1.735,2.134,3.077
		c0.726,1.509,1.318,3.492,1.594,6.031c0.051,0.463,0.093,0.94,0.118,1.444c0.025,0.435,0.041,0.88,0.046,1.339
		c0.07,6.332-1.687,15.54-7.212,28.851c3.963-3.162,10.985-10.761,13.936-26.297c0.067-0.355,0.126-0.723,0.19-1.082
		c0.064-0.366,0.131-0.718,0.191-1.092c0.029-0.198,0.07-0.381,0.101-0.582C91.549-686.008,92.093-694.776,84.584-697.907z"/>
	<path class="icon" d="M70.199-721.58c-0.203,0.58-0.345,0.911-0.373,0.973c-2.006,4.457-2.936,8.266-2.791,11.41
		c0.02,0.453,0.078,0.881,0.144,1.306c0.078,0.505,0.195,0.989,0.338,1.457c0.221,0.736,0.494,1.437,0.871,2.07
		c1.261,2.093,3.226,3.294,4.96,3.983c0.502,0.196,0.971,0.345,1.414,0.468c0.155,0.042,0.293,0.074,0.44,0.108
		c0.293,0.072,0.553,0.131,0.783,0.172c0.005-0.036,0.011-0.078,0.013-0.115c0.016-0.129,0.031-0.26,0.046-0.407
		c0.679-6.1,2.596-28.241-3.379-40.506c0.106,6.903-0.659,12.046-1.429,15.395C70.856-723.588,70.471-722.353,70.199-721.58z"/>
	<path class="icon" d="M78.771-706.36c-0.149,2.243-0.322,4.138-0.474,5.534c-0.044,0.433-0.087,0.813-0.126,1.141
		c-0.023,0.007-0.041,0.007-0.06,0.016c0.02-0.005,0.038-0.01,0.06-0.01c0.195-0.033,0.399-0.052,0.585-0.085
		c0.276-0.057,0.541-0.126,0.804-0.195c0.891-0.229,1.692-0.525,2.412-0.88c6.818-3.357,6.303-11.62,6.273-12.04
		c-0.343-2.304-0.78-4.437-1.279-6.43c-0.101-0.397-0.213-0.772-0.317-1.154c-0.108-0.41-0.221-0.814-0.34-1.208
		c-3.061-10.33-7.956-16.227-11.394-19.281c4.022,8.844,4.431,21.694,4.05,30.996C78.912-708.68,78.842-707.478,78.771-706.36z"/>
</g>
<g>
	<path class="icon" d="M442.232-130.679c-10.556-8.213-27.561,2.99-42.388,11.014l22.547-19.888c0,0,8.437-2.703,2.393-8.35
		c-25.324-14.775-63.056-7.184-90.217,19.968c-31.06,31.073-36.525,75.985-12.181,100.321c1.431,4.187,9.142-6.894,12.185-10.085
		c-1.393,1.416,3.617-3.761,0,0c-1.81,4.474-2.878,11.423-3.495,16.923c25.315,15.935,63.939,8.653,91.618-19.027
		C450.111-67.202,452.791-122.463,442.232-130.679z"/>
</g>
<path class="icon" d="M585.308-122.743l6.102-13.773c0,0,1.749-0.844,4.173-2.014c2.421-1.169-9.166-6.208-8.553-2.997
	c0.606,3.209-0.136,4.191-0.136,4.191l-6.005,13.574c-2.851-0.526-4.862-0.683-4.862-0.683c-0.18-0.058-0.327-0.085-0.497-0.14
	c-4.516,11.121-13.216,25.495-13.255,25.617v-1.296c0.04-0.121,4.227-12.601,8.563-23.953l0.829-0.941
	c-11.397-3.53-13.985,7.85-13.985,7.85c-11.204,57.042-99.833,83.529-99.833,83.529c2.032,8.15,21.392,5.092,21.392,5.092
	c111.047-16.296,121.226-76.403,121.226-76.403C602.967-115.699,593.228-120.561,585.308-122.743z"/>
<g>
	<path class="icon" d="M-83.38,109.945c5.936-4.652,11.263-9.964,16.959-15.498c0.036,1.391-0.634,1.872-1.142,2.376
		c-2.263,2.249-4.342,4.671-6.593,6.937c-2.676,2.693-5.135,5.635-7.79,8.373c-6.682,6.89-13.5,13.624-20.781,19.906
		c-4.755,4.103-10.19,6.907-15.687,9.707c-0.599,0.305-1.144,0.724-1.756,0.996c-0.734,0.326-1.542,0.581-1.091-0.789
		c0.066-0.199,0.29-0.452-0.106-0.443c-1.136,0.026-2.031-0.501-2.944-1.084c-0.552-0.353-0.911,0.241-1.299,0.519
		c-1.808,1.297-4.731,0.356-5.289-1.795c-0.15-0.58-0.341-0.563-0.766-0.527c-0.773,0.066-1.313-0.297-1.537-1.028
		c-0.244-0.795,0.314-1.216,0.837-1.675c1.522-1.335,3.333-2.245,4.907-3.536c9.106-7.468,16.397-16.606,23.719-25.694
		c9.975-12.38,18.147-25.937,25.409-40.052c1.001-1.945,1.82-3.983,2.734-5.973c0.69-1.503,0.846-3.189,0.311-4.61
		c-0.566-1.505-2.182-2.316-3.7-2.835c-2.56-0.876-3.042-1.698-2.109-4.179c0.244-0.649,0.494-1.334-0.048-1.902
		c-0.596-0.625-1.335-1.039-2.269-0.762c-0.108,0.032-0.218,0.096-0.323,0.09c-1.162-0.07-1.993,1.897-3.145,0.823
		c-1.566-1.461-3.329-2.894-3.714-5.243c-0.172-1.052-0.336-2.107-0.569-3.146c-0.202-0.901-0.003-1.621,0.593-2.332
		c0.789-0.942,1.559-1.918,2.194-2.966c0.714-1.18,1.278-2.46-0.141-3.602c-0.423-0.34-0.425-0.752-0.24-1.211
		c0.214-0.531,0.453-1.108-0.093-1.548c-0.605-0.489-1.168-0.069-1.699,0.239c-0.396,0.229-0.796,0.384-1.266,0.399
		c-1.196,0.038-2.307-1.235-1.594-2.033c1.224-1.373,0.592-2.956,0.972-4.393c0.261-0.989,0.48-1.339,1.496-1.204
		c1.277,0.17,2.575,0.183,3.859,0.309c1.798,0.175,3.151-0.636,4.276-1.911c0.719-0.815,0.731-1.853,0.165-2.656
		c-1.258-1.786-1.354-2.792-0.125-4.542c0.361-0.513,0.778-0.959,1.32-1.278c1.139-0.671,2.111-0.794,2.65,0.743
		c0.166,0.472,0.449,0.903,0.677,1.354c0.796,1.576,1.994,1.932,2.722,0.463c1.277-2.577,3.513-1.765,5.408-2.123
		c0.97-0.183,1.859-0.48,2.64-1.001c1.059-0.705,1.289-2.404,0.428-3.434c-0.776-0.928-0.871-1.794-0.207-2.745
		c0.69-0.988,1.602-0.656,2.406-0.227c1.259,0.672,1.984,0.383,2.373-0.996c0.132-0.469,0.52-0.86,0.744-1.31
		c0.621-1.251,1.28-1.022,1.996-0.091c1.37,1.782,1.373,1.779,3.33,0.347c3.31-2.423,6.655-1.23,8.072,2.934
		c0.485,1.426,1.457,2.902-0.047,4.361c-0.371,0.36-0.097,0.8,0.333,0.915c3.406,0.907,4.114,3.83,4.952,6.628
		c0.462,1.542,0.874,1.762,2.226,0.943c1.729-1.047,2.286-0.978,3.302,0.755c0.499,0.851,0.887,0.976,1.701,0.46
		c1.111-0.704,2.566-0.735,3.542-1.753c0.128-0.133,0.472-0.21,0.635-0.135c2.179,0.997,4.025-0.198,5.964-0.848
		c1.712-0.574,2.096-0.307,1.913,1.42c-0.104,0.974,0.755,1.903,0.688,2.343c-0.287,1.887,2.14,2.682,1.509,4.631
		c-0.513,1.584-0.6,3.3-0.989,4.931c-0.319,1.337-0.725,2.337,1.031,3.287c0.87,0.471,1.954,1.671,2.229,3.257
		c0.182,1.048,1.424,1.98,1.795,3.231c0.145,0.489,0.476,0.983,0.207,1.435c-0.813,1.368-0.183,1.803,1.101,2.164
		c1.641,0.462,2.013,1.923,0.974,3.476c-0.622,0.93-1.467,1.706-1.892,2.774c-0.751,1.885-0.267,3.273,1.476,4.227
		c0.493,0.27,0.949,0.628,1.469,0.82c1.714,0.633,2.624,1.636,1.909,3.567c-0.141,0.382,0.078,0.775,0.315,1.099
		c0.687,0.941,0.643,1.894,0.014,2.821c-0.783,1.154-0.574,2.147,0.227,3.231c1.068,1.446,0.701,2.341-1.044,2.786
		c-2.448,0.624-4.238,2.127-5.837,4.018c-2.155,2.548-3.771,5.411-5.41,8.292c-1.836,3.226-4.42,5.637-8.258,6.379
		c-1.84,0.356-3.496,1.218-5.092,2.171c-1.145,0.684-2.344,1.043-3.685,0.941c-1.617-0.122-2.568-1.018-2.694-2.626
		c-0.048-0.616,0.028-1.383-0.567-1.652c-0.479-0.217-0.798,0.481-1.182,0.781c-1.899,1.481-5.631,1.35-7.714-0.391
		c-1.158-0.968-2.412-1.967-3.173-3.225c-0.948-1.567-1.589-0.941-2.331-0.054c-2.196,2.628-4.36,5.282-6.52,7.939
		c-5.6,6.89-11.691,13.339-17.753,19.814C-83.069,109.498-83.216,109.73-83.38,109.945z M-102.582,117.842
		c1.728-1.596,3.51-3.137,5.174-4.798c9.258-9.239,18.282-18.698,27.094-28.368c4.592-5.039,8.327-10.284,8.21-17.448
		c-0.002-0.111,0.034-0.222,0.046-0.333c0.22-1.996-1.06-3.52-3.667-4.25c-1.769-0.495-1.887,1.171-2.535,2.084
		c-0.583,0.822-1.071,1.713-1.574,2.588c-7.227,12.561-14.67,24.986-22.965,36.883C-96.006,108.8-99.37,113.282-102.582,117.842z"/>
</g>
<path class="icon" d="M30.242,15.268c0,0-9.44,10.174-5.139,19.823s17.201,21.397,19.719,34.927
	c2.517,13.53,2.937,16.362-0.944,22.236c-3.881,5.874-7.971,21.921,0.629,34.927s28.424,17.096,36.186,16.887
	c7.762-0.21,7.866-2.517,12.481-2.517c4.615,0,18.565-6.293,24.963-22.55s-4.825-38.703-13.95-44.472
	c-9.125-5.769-11.642-6.293-13.53-10.069c-1.888-3.776-11.223-18.355-12.796-32.515c-1.573-14.16-8.496-26.536-22.446-29.263
	c-5.664-0.839-12.062,3.042-13.53,3.776c0.21-1.364-0.944-3.251-5.035-2.937c-1.993,0.105-4.93-3.147-4.93-3.147
	s-0.629-1.259-1.993,0.839s-3.566,4.72-2.517,4.825s1.993,2.098,1.678,4.51C28.774,12.961,28.879,13.695,30.242,15.268z"/>
</svg>
